<svg id="svg" version="1.1" xmlns="http://www.w3.org/2000/svg" xmlns:xlink="http://www.w3.org/1999/xlink" width="400" height="400" viewBox="0, 0, 400,400"><g id="svgg"><path id="path0" d="M183.398 2.008 C 90.238 10.067,15.198 81.441,3.148 173.454 C -12.535 293.213,79.530 398.434,200.000 398.434 C 331.451 398.434,426.245 273.778,391.396 146.742 C 366.325 55.346,277.921 -6.169,183.398 2.008 M198.438 24.930 L 198.438 45.173 191.113 45.647 C 183.009 46.171,175.148 47.188,168.444 48.578 C 166.019 49.080,163.980 49.386,163.911 49.258 C 163.842 49.129,162.332 43.179,160.556 36.035 C 158.665 28.430,157.144 23.056,156.886 23.068 C 156.644 23.080,141.821 30.419,123.947 39.377 L 91.448 55.664 99.044 65.933 C 103.222 71.580,106.633 76.326,106.624 76.479 C 106.615 76.633,104.955 78.053,102.935 79.635 C 100.915 81.218,97.568 84.103,95.498 86.047 L 91.733 89.580 77.287 75.161 L 62.842 60.742 65.698 58.075 C 92.936 32.641,125.087 15.877,160.547 8.621 C 169.373 6.815,176.130 5.925,188.477 4.943 C 189.336 4.875,191.929 4.789,194.238 4.753 L 198.438 4.688 198.438 24.930 M220.195 5.671 C 263.078 10.116,302.167 28.068,334.302 58.075 L 337.158 60.742 322.708 75.166 L 308.258 89.590 304.812 86.323 C 279.755 62.561,245.410 47.998,208.887 45.646 L 201.563 45.175 201.563 24.870 L 201.563 4.565 207.988 4.818 C 211.522 4.958,217.015 5.341,220.195 5.671 M175.850 109.666 C 187.167 154.941,196.374 192.038,196.309 192.102 C 196.245 192.167,173.676 161.758,146.157 124.528 L 96.121 56.836 125.502 42.111 C 141.661 34.013,154.971 27.378,155.078 27.366 C 155.186 27.355,164.533 64.390,175.850 109.666 M198.438 68.682 L 198.438 88.926 192.192 89.393 C 188.756 89.650,183.878 90.225,181.352 90.671 C 178.825 91.117,176.245 91.509,175.618 91.542 L 174.479 91.602 169.610 72.154 C 166.932 61.458,164.828 52.620,164.935 52.513 C 166.060 51.388,186.313 48.655,194.629 48.506 L 198.438 48.438 198.438 68.682 M219.184 49.593 C 250.467 53.623,280.816 67.761,302.578 88.440 L 306.055 91.744 291.745 106.079 L 277.436 120.414 273.787 117.193 C 270.733 114.498,266.957 111.548,261.342 107.471 L 260.379 106.772 265.599 98.464 C 269.724 91.900,270.704 90.082,270.273 89.801 C 268.740 88.803,240.235 73.047,239.965 73.048 C 239.791 73.049,238.114 77.770,236.239 83.539 L 232.830 94.028 229.727 93.130 C 223.019 91.187,214.266 89.759,205.762 89.221 L 201.563 88.956 201.563 68.636 L 201.563 48.316 207.368 48.567 C 210.561 48.705,215.878 49.167,219.184 49.593 M86.689 94.801 C 72.615 109.544,58.836 132.888,52.897 152.051 C 52.514 153.286,52.057 154.297,51.882 154.297 C 51.706 154.297,51.563 154.728,51.563 155.256 C 51.563 155.783,50.952 158.640,50.207 161.604 C 47.623 171.871,46.099 182.160,45.488 193.457 L 45.219 198.437 24.892 198.438 L 4.566 198.438 4.833 191.927 C 6.753 145.080,24.854 101.780,57.188 66.684 L 60.711 62.861 75.156 77.306 L 89.601 91.751 86.689 94.801 M348.583 73.242 C 377.304 107.009,393.356 148.006,395.180 192.251 L 395.435 198.438 375.061 198.438 L 354.688 198.438 354.684 196.973 C 354.601 161.421,338.197 120.917,313.307 94.802 L 310.400 91.752 324.829 77.308 L 339.258 62.864 342.093 65.905 C 343.652 67.577,346.573 70.879,348.583 73.242 M253.807 84.028 C 260.414 87.705,265.970 90.851,266.153 91.021 C 266.336 91.190,259.318 102.728,250.558 116.661 C 241.799 130.593,231.707 146.650,228.132 152.344 C 210.009 181.206,205.783 187.891,205.660 187.891 C 205.586 187.891,206.121 186.089,206.848 183.887 C 207.575 181.685,213.896 162.217,220.894 140.625 C 227.892 119.033,234.132 99.873,234.760 98.047 C 235.388 96.221,237.147 90.815,238.670 86.035 C 240.194 81.255,241.519 77.344,241.616 77.344 C 241.713 77.344,247.199 80.352,253.807 84.028 M120.939 95.508 L 132.807 111.523 130.972 113.086 C 129.963 113.945,127.661 115.948,125.855 117.536 L 122.572 120.423 108.267 106.117 L 93.961 91.811 95.906 89.811 C 98.904 86.729,107.943 79.272,108.539 79.388 C 108.831 79.445,114.411 86.699,120.939 95.508 M198.438 112.454 L 198.438 132.720 195.020 132.996 C 193.140 133.148,190.202 133.513,188.492 133.806 C 186.781 134.100,185.313 134.271,185.228 134.186 C 184.644 133.602,175.419 95.146,175.805 94.907 C 177.104 94.104,190.147 92.330,195.410 92.239 L 198.438 92.188 198.438 112.454 M215.176 93.184 C 219.570 93.825,226.762 95.340,230.044 96.315 C 231.826 96.844,231.974 96.976,231.674 97.765 C 231.493 98.242,228.666 106.895,225.393 116.992 C 222.119 127.090,219.399 135.399,219.348 135.457 C 219.297 135.515,217.452 135.126,215.249 134.592 C 213.045 134.059,209.064 133.411,206.402 133.153 L 201.563 132.684 201.563 112.376 L 201.563 92.067 206.290 92.322 C 208.890 92.461,212.889 92.849,215.176 93.184 M106.204 108.353 L 120.413 122.565 117.238 126.163 C 107.457 137.245,99.393 150.976,95.325 163.477 C 94.835 164.980,94.315 166.343,94.169 166.505 C 93.950 166.749,56.354 155.821,55.415 155.240 C 54.077 154.414,63.704 132.461,69.994 121.995 C 75.930 112.119,89.966 94.141,91.742 94.141 C 91.882 94.141,98.390 100.536,106.204 108.353 M311.552 97.363 C 335.126 122.359,349.725 157.334,351.418 192.871 L 351.683 198.438 331.352 198.438 L 311.022 198.437 310.763 194.434 C 309.068 168.186,299.707 145.362,282.762 126.163 L 279.587 122.565 293.796 108.353 C 301.610 100.536,308.118 94.141,308.258 94.141 C 308.398 94.141,309.880 95.591,311.552 97.363 M267.383 115.763 C 269.102 117.146,271.563 119.250,272.852 120.440 L 275.195 122.604 260.856 136.969 L 246.516 151.334 245.035 150.085 C 244.221 149.398,242.148 147.754,240.430 146.433 C 238.711 145.111,237.305 143.910,237.305 143.763 C 237.305 143.616,242.121 135.826,248.007 126.452 L 258.709 109.408 261.484 111.329 C 263.009 112.386,265.664 114.381,267.383 115.763 M146.857 130.598 C 153.336 139.370,158.584 146.683,158.518 146.850 C 158.360 147.251,153.853 151.172,153.550 151.172 C 152.885 151.172,124.930 122.695,125.187 122.279 C 125.792 121.299,134.556 114.088,134.809 114.361 C 134.955 114.519,140.377 121.826,146.857 130.598 M137.083 139.232 C 150.159 152.311,151.266 153.520,150.753 154.169 C 150.446 154.558,149.249 156.006,148.092 157.388 C 143.926 162.364,139.195 170.610,137.090 176.563 C 136.596 177.959,136.153 179.157,136.105 179.224 C 136.002 179.369,97.547 167.957,97.269 167.698 C 96.164 166.671,105.003 147.879,110.280 140.039 C 113.715 134.936,121.838 125.000,122.575 125.000 C 122.729 125.000,129.258 131.404,137.083 139.232 M280.158 127.832 C 296.781 146.522,306.284 169.318,307.669 193.827 L 307.930 198.438 287.590 198.438 L 267.250 198.438 267.022 195.801 C 265.752 181.106,260.421 167.556,251.908 157.388 C 250.751 156.006,249.554 154.558,249.247 154.169 C 248.743 153.532,276.273 125.000,277.392 125.000 C 277.527 125.000,278.772 126.274,280.158 127.832 M198.438 156.250 L 198.438 176.563 197.085 176.563 C 195.852 176.563,195.699 176.434,195.346 175.098 C 193.907 169.650,186.288 138.827,186.219 138.171 C 186.104 137.089,190.569 136.091,195.996 135.985 L 198.438 135.938 198.438 156.250 M212.695 137.137 C 214.844 137.598,217.002 138.065,217.492 138.176 C 218.188 138.333,218.327 138.557,218.130 139.208 C 216.582 144.327,206.063 176.446,205.857 176.681 C 205.706 176.854,204.678 176.875,203.573 176.729 L 201.563 176.462 201.563 156.141 L 201.563 135.820 205.176 136.060 C 207.163 136.192,210.547 136.677,212.695 137.137 M238.507 148.700 C 239.598 149.523,241.346 150.951,242.392 151.875 L 244.294 153.554 230.057 167.800 C 216.263 181.603,215.172 182.535,214.347 181.224 C 213.778 180.320,235.090 146.422,235.938 146.885 C 236.260 147.061,237.416 147.878,238.507 148.700 M172.798 165.719 C 179.349 174.579,184.627 181.910,184.526 182.010 C 184.300 182.237,155.821 153.801,155.957 153.483 C 156.151 153.027,160.190 149.609,160.535 149.609 C 160.729 149.609,166.247 156.859,172.798 165.719 M167.869 170.018 C 175.658 177.805,182.031 184.310,182.031 184.474 C 182.031 184.638,181.548 185.441,180.957 186.259 C 180.366 187.076,179.456 188.659,178.935 189.776 C 178.267 191.206,177.806 191.754,177.373 191.630 C 172.678 190.287,139.215 180.303,139.097 180.210 C 138.474 179.716,143.573 169.059,146.589 164.554 C 148.630 161.504,153.112 155.882,153.514 155.867 C 153.620 155.863,160.080 162.231,167.869 170.018 M249.254 158.984 C 257.930 169.360,264.004 184.868,264.055 196.777 L 264.063 198.438 244.238 198.392 C 233.335 198.367,224.678 198.284,225.000 198.207 C 225.322 198.130,230.420 197.441,236.328 196.676 C 242.236 195.911,247.446 195.205,247.905 195.107 C 248.643 194.950,245.689 180.324,244.724 179.359 C 244.644 179.280,239.391 181.430,233.050 184.139 C 226.710 186.847,221.364 189.063,221.171 189.063 C 220.877 189.063,218.520 185.736,218.024 184.621 C 217.853 184.236,246.143 155.804,246.545 155.957 C 246.687 156.011,247.906 157.373,249.254 158.984 M75.391 164.476 C 85.596 167.511,97.988 171.194,102.930 172.660 C 107.871 174.126,129.404 180.546,150.781 186.925 C 172.158 193.304,190.571 198.792,191.699 199.121 C 194.132 199.829,194.256 200.161,192.285 200.685 C 191.479 200.900,179.219 204.537,165.039 208.768 C 118.278 222.721,109.766 225.258,89.648 231.245 C 78.691 234.505,66.343 238.191,62.207 239.435 L 54.688 241.698 54.688 199.971 L 54.688 158.244 55.762 158.601 C 56.353 158.797,65.186 161.441,75.391 164.476 M51.563 184.180 L 51.563 198.438 49.941 198.438 L 48.319 198.438 48.583 192.841 C 48.944 185.202,50.840 169.922,51.426 169.922 C 51.501 169.922,51.563 176.338,51.563 184.180 M198.402 183.301 L 198.367 186.914 197.639 184.180 C 196.345 179.316,196.360 179.688,197.453 179.688 C 198.437 179.688,198.437 179.690,198.402 183.301 M204.498 180.176 C 204.596 180.444,203.985 182.773,203.142 185.352 L 201.608 190.039 201.585 184.863 L 201.563 179.688 202.942 179.688 C 203.701 179.688,204.401 179.907,204.498 180.176 M212.831 184.107 C 213.158 184.502,212.749 185.112,211.060 186.744 L 208.864 188.867 209.774 187.305 C 211.882 183.685,212.202 183.350,212.831 184.107 M243.872 187.946 C 244.460 190.339,244.894 192.333,244.834 192.377 C 244.775 192.420,241.738 192.849,238.086 193.330 C 234.434 193.810,229.600 194.452,227.344 194.756 C 215.017 196.417,211.918 196.813,211.842 196.737 C 211.720 196.615,241.916 183.653,242.397 183.621 C 242.620 183.606,243.283 185.552,243.872 187.946 M193.955 196.409 C 193.805 196.559,181.772 193.082,181.155 192.710 C 180.799 192.496,182.159 189.727,183.494 187.947 L 184.477 186.637 189.296 191.444 C 191.946 194.088,194.043 196.322,193.955 196.409 M216.794 188.340 C 218.527 190.731,219.173 190.138,211.133 193.535 L 206.836 195.350 211.126 191.034 C 216.155 185.976,215.357 186.355,216.794 188.340 M45.484 206.348 C 46.106 217.878,47.656 228.340,50.210 238.258 C 50.954 241.146,51.563 244.002,51.563 244.606 C 51.563 245.209,51.718 245.703,51.908 245.703 C 52.098 245.703,53.049 248.032,54.020 250.879 C 60.615 270.198,72.043 289.281,86.206 304.625 L 89.573 308.274 75.161 322.691 L 60.748 337.107 57.568 333.676 C 24.593 298.100,4.749 249.654,4.691 204.590 L 4.688 201.563 24.957 201.563 L 45.226 201.563 45.484 206.348 M51.516 215.918 C 51.474 228.919,51.421 230.034,50.953 227.734 C 50.019 223.146,48.866 213.191,48.590 207.324 L 48.319 201.563 49.941 201.563 L 51.563 201.563 51.516 215.918 M220.313 201.739 C 220.313 203.706,217.779 210.526,216.830 211.112 C 216.439 211.354,211.127 207.317,205.859 202.773 L 204.492 201.594 212.402 201.578 C 216.753 201.570,220.313 201.642,220.313 201.739 M263.900 204.980 C 263.283 212.803,260.828 221.500,257.201 228.711 C 255.058 232.970,251.350 238.694,250.572 238.942 C 250.218 239.056,222.272 216.523,220.039 214.323 L 219.180 213.477 220.731 210.352 C 221.583 208.633,222.476 206.172,222.715 204.883 C 222.953 203.594,223.208 202.319,223.281 202.051 C 223.384 201.668,227.820 201.563,243.791 201.563 L 264.170 201.563 263.900 204.980 M307.674 206.068 C 306.582 225.187,300.434 243.609,289.859 259.441 C 284.946 266.797,284.677 267.098,283.647 266.390 C 282.062 265.301,253.161 241.600,253.143 241.374 C 253.133 241.249,254.279 239.421,255.689 237.311 C 262.355 227.341,265.758 217.380,267.001 204.199 L 267.250 201.563 287.591 201.563 L 307.932 201.563 307.674 206.068 M351.426 206.951 C 349.969 237.471,339.808 265.895,321.551 290.527 C 319.918 292.729,318.438 294.531,318.262 294.531 C 318.085 294.531,310.926 288.791,302.353 281.776 L 286.766 269.020 288.436 266.834 C 301.921 249.180,310.854 223.689,310.933 202.637 L 310.938 201.563 331.310 201.563 L 351.683 201.563 351.426 206.951 M395.175 207.851 C 393.234 254.956,375.092 298.209,342.382 333.723 L 339.256 337.117 333.207 331.058 L 327.158 325.000 333.305 318.843 C 336.687 315.457,339.453 312.563,339.453 312.413 C 339.453 312.263,335.236 308.685,330.082 304.463 C 324.928 300.241,320.791 296.657,320.889 296.499 C 320.987 296.341,322.524 294.264,324.303 291.884 C 342.894 267.028,354.593 232.736,354.684 202.832 L 354.688 201.563 375.061 201.563 L 395.435 201.563 395.175 207.851 M196.383 212.226 C 194.963 220.525,195.473 219.957,191.211 217.991 C 189.922 217.397,188.428 216.543,187.891 216.094 L 186.914 215.277 192.169 209.996 C 195.058 207.091,197.470 204.762,197.528 204.820 C 197.586 204.878,197.071 208.210,196.383 212.226 M206.855 211.784 C 210.378 216.562,210.598 216.965,209.938 217.448 C 209.197 217.990,205.033 219.642,204.898 219.447 C 204.856 219.386,204.421 216.963,203.931 214.063 C 203.441 211.162,202.950 208.306,202.839 207.715 C 202.519 206.014,202.836 206.336,206.855 211.784 M178.314 208.584 C 178.590 209.030,142.699 227.084,142.043 226.830 C 141.663 226.682,140.053 222.957,139.303 220.490 C 138.969 219.389,177.689 207.572,178.314 208.584 M273.191 261.884 L 335.213 312.635 320.840 327.012 C 312.935 334.919,306.355 341.261,306.218 341.105 C 306.080 340.948,302.283 335.811,297.780 329.688 C 290.109 319.258,272.960 296.038,264.460 284.570 C 262.389 281.777,256.413 273.691,251.178 266.602 C 245.944 259.512,240.229 251.777,238.478 249.414 C 224.012 229.890,210.003 210.869,209.571 210.163 C 209.113 209.415,202.419 203.973,273.191 261.884 M183.203 210.299 C 183.203 210.378,180.698 212.296,177.637 214.560 C 174.575 216.825,162.314 225.896,150.391 234.719 C 138.467 243.542,128.588 250.722,128.438 250.674 C 128.288 250.625,126.583 248.477,124.649 245.898 L 121.133 241.211 152.070 225.705 C 185.239 209.081,183.203 210.088,183.203 210.299 M200.557 212.598 C 200.704 213.726,201.069 215.879,201.367 217.383 C 201.666 218.887,203.248 227.939,204.883 237.500 C 206.518 247.061,208.366 257.871,208.991 261.523 C 209.616 265.176,211.628 276.896,213.462 287.568 C 215.296 298.240,216.797 307.160,216.797 307.392 C 216.797 307.686,211.737 307.813,200.000 307.813 C 189.149 307.813,183.203 307.675,183.203 307.425 C 183.203 307.212,184.616 298.818,186.343 288.773 C 188.069 278.727,190.189 266.377,191.052 261.328 C 191.916 256.279,193.946 244.502,195.564 235.156 C 197.182 225.811,198.789 216.450,199.135 214.355 C 199.847 210.045,200.172 209.643,200.557 212.598 M168.162 229.710 L 153.711 244.185 151.652 241.942 C 150.519 240.708,149.649 239.531,149.717 239.325 C 149.878 238.843,181.710 215.266,182.225 215.248 C 182.438 215.240,176.110 221.748,168.162 229.710 M187.265 219.296 C 188.703 220.240,190.925 221.339,192.202 221.737 C 193.479 222.135,194.526 222.591,194.528 222.750 C 194.534 223.235,187.883 261.882,187.709 262.373 C 187.355 263.374,178.109 260.539,171.960 257.544 C 166.542 254.905,161.220 251.302,157.119 247.499 L 155.840 246.312 170.203 231.945 C 178.103 224.043,184.585 217.578,184.608 217.578 C 184.631 217.578,185.826 218.351,187.265 219.296 M224.607 235.755 C 231.159 244.657,236.563 252.076,236.615 252.240 C 237.252 254.224,212.984 264.334,212.291 262.373 C 212.110 261.861,205.469 223.237,205.469 222.696 C 205.469 222.507,206.040 222.242,206.738 222.107 C 207.437 221.973,208.975 221.355,210.156 220.734 C 211.338 220.113,212.393 219.598,212.500 219.588 C 212.607 219.578,218.056 226.853,224.607 235.755 M137.635 224.645 C 138.460 226.805,139.076 228.628,139.002 228.696 C 138.928 228.764,133.821 231.344,127.654 234.429 L 116.441 240.039 122.103 247.572 C 125.812 252.508,127.928 255.009,128.238 254.827 C 128.498 254.673,132.714 251.591,137.608 247.977 C 147.984 240.313,146.592 240.800,149.313 243.881 L 151.500 246.356 137.052 260.776 L 122.605 275.195 120.657 273.047 C 110.751 262.121,97.266 238.854,97.266 232.688 C 97.266 232.316,101.659 230.840,111.426 227.933 C 119.214 225.614,127.783 223.050,130.469 222.235 C 133.154 221.420,135.527 220.745,135.742 220.735 C 135.957 220.726,136.809 222.485,137.635 224.645 M95.688 237.500 C 100.401 250.740,107.051 261.928,117.124 273.565 L 120.446 277.404 106.103 291.729 L 91.759 306.055 89.140 303.320 C 77.232 290.890,66.060 273.377,59.359 256.641 C 57.656 252.387,55.013 244.843,55.179 244.710 C 55.523 244.433,93.271 233.287,93.696 233.336 C 93.998 233.372,94.860 235.174,95.688 237.500 M158.398 252.599 C 165.330 258.166,174.581 262.708,183.473 264.910 C 185.366 265.379,186.971 265.803,187.041 265.853 C 187.194 265.963,180.435 305.593,180.223 305.828 C 180.142 305.918,178.632 305.682,176.866 305.302 C 158.759 301.411,141.628 292.467,126.758 279.140 L 124.805 277.390 139.249 262.921 L 153.693 248.452 155.069 249.741 C 155.826 250.450,157.324 251.737,158.398 252.599 M250.965 271.462 L 262.921 287.651 258.511 290.538 C 252.017 294.791,242.009 299.590,234.375 302.113 C 228.249 304.137,220.125 306.211,219.787 305.838 C 219.645 305.681,212.880 266.570,212.887 265.952 C 212.889 265.810,213.638 265.571,214.551 265.420 C 219.794 264.557,230.560 260.118,235.742 256.683 C 237.031 255.829,238.294 255.162,238.548 255.202 C 238.802 255.241,244.390 262.558,250.965 271.462 M126.512 282.943 C 142.262 296.575,158.301 304.507,178.851 308.827 C 179.585 308.981,179.735 309.215,179.588 309.979 L 179.405 310.938 188.921 310.938 L 198.438 310.938 198.438 331.309 L 198.438 351.681 193.066 351.418 C 157.261 349.663,122.264 335.044,97.266 311.399 L 93.945 308.258 108.201 293.973 C 116.042 286.116,122.523 279.688,122.603 279.688 C 122.684 279.688,124.443 281.153,126.512 282.943 M276.842 306.475 C 283.343 315.267,288.664 322.574,288.667 322.711 C 288.670 322.849,287.134 324.014,285.254 325.300 C 262.275 341.019,235.255 350.030,206.934 351.418 L 201.563 351.681 201.563 331.309 L 201.563 310.938 211.079 310.938 L 220.595 310.938 220.412 309.979 C 220.265 309.215,220.415 308.981,221.149 308.827 C 236.151 305.673,248.737 300.557,260.319 292.906 C 262.485 291.475,264.430 290.346,264.640 290.397 C 264.850 290.448,270.341 297.683,276.842 306.475 M95.440 313.855 C 122.282 338.630,155.447 352.281,194.238 354.520 L 198.438 354.763 198.438 375.097 L 198.438 395.432 192.090 395.164 C 144.729 393.160,101.457 374.966,66.089 342.188 L 62.928 339.258 77.263 324.902 C 85.147 317.007,91.656 310.547,91.727 310.547 C 91.798 310.547,93.469 312.035,95.440 313.855 M298.446 335.725 L 306.055 346.059 315.526 336.608 L 324.998 327.156 331.032 333.180 L 337.065 339.204 333.771 342.294 C 299.344 374.583,255.104 393.167,207.910 395.164 L 201.563 395.432 201.563 375.097 L 201.563 354.763 205.762 354.520 C 236.312 352.756,261.923 344.502,285.239 328.906 C 288.094 326.997,290.522 325.425,290.634 325.413 C 290.746 325.400,294.262 330.041,298.446 335.725 " stroke="none" fill="#747774" fill-rule="evenodd"></path><path id="path1" d="M125.502 42.111 L 96.121 56.836 146.157 124.528 C 173.676 161.758,196.245 192.167,196.309 192.102 C 196.491 191.921,155.299 27.343,155.078 27.366 C 154.971 27.378,141.661 34.013,125.502 42.111 M235.566 96.207 C 234.969 97.919,234.972 97.924,237.207 98.657 C 240.151 99.623,249.358 103.859,252.694 105.782 C 256.054 107.720,255.973 107.708,256.843 106.380 C 257.497 105.382,257.494 105.316,256.790 104.792 C 254.313 102.952,243.803 97.874,238.447 95.930 L 235.975 95.033 235.566 96.207 M222.266 136.793 C 222.266 136.862,222.099 137.502,221.894 138.213 C 221.543 139.441,221.586 139.529,222.745 139.933 C 223.417 140.167,225.879 141.298,228.217 142.445 C 233.229 144.905,232.576 144.789,233.567 143.397 L 234.375 142.262 232.677 141.267 C 230.048 139.726,222.266 136.382,222.266 136.793 M54.688 199.971 L 54.688 241.698 62.207 239.435 C 66.343 238.191,78.691 234.505,89.648 231.245 C 109.766 225.258,118.278 222.721,165.039 208.768 C 179.219 204.537,191.479 200.900,192.285 200.685 C 194.256 200.161,194.132 199.829,191.699 199.121 C 190.571 198.792,172.158 193.304,150.781 186.925 C 129.404 180.546,107.871 174.126,102.930 172.660 C 77.915 165.237,56.720 158.919,55.762 158.601 L 54.688 158.244 54.688 199.971 M208.388 179.736 C 208.146 180.837,208.552 181.617,209.375 181.632 C 209.968 181.643,210.946 179.152,210.467 178.849 C 209.417 178.183,208.658 178.507,208.388 179.736 M209.571 210.163 C 210.003 210.869,224.012 229.890,238.478 249.414 C 240.229 251.777,245.944 259.512,251.178 266.602 C 256.413 273.691,262.389 281.777,264.460 284.570 C 272.960 296.038,290.109 319.258,297.780 329.688 C 302.283 335.811,306.080 340.948,306.218 341.105 C 306.355 341.261,312.935 334.919,320.840 327.012 L 335.213 312.635 273.191 261.884 C 202.419 203.973,209.113 209.415,209.571 210.163 " stroke="none" fill="#f3a52e" fill-rule="evenodd"></path><path id="path2" d="M187.891 5.109 C 142.826 7.940,98.168 27.140,67.066 57.058 L 63.086 60.887 77.317 75.145 L 91.547 89.403 93.918 87.262 C 95.222 86.084,98.611 83.167,101.448 80.780 L 106.607 76.440 105.753 75.232 C 105.283 74.567,101.856 69.914,98.138 64.891 C 94.420 59.868,91.428 55.712,91.489 55.656 C 91.551 55.600,106.392 48.162,124.469 39.126 L 157.337 22.698 160.558 35.665 C 162.330 42.797,163.911 48.779,164.071 48.959 C 164.231 49.138,166.624 48.838,169.388 48.292 C 178.270 46.538,188.879 45.325,195.410 45.317 L 198.438 45.313 198.438 25.000 L 198.438 4.688 195.605 4.745 C 194.048 4.776,190.576 4.940,187.891 5.109 M201.563 25.000 L 201.563 45.313 204.590 45.317 C 240.024 45.364,275.682 60.172,306.476 87.628 L 308.459 89.396 322.687 75.144 L 336.914 60.893 333.325 57.434 C 300.001 25.325,249.225 4.740,203.223 4.689 L 201.563 4.688 201.563 25.000 M189.070 48.862 C 180.703 49.503,165.974 51.841,165.158 52.658 C 164.920 52.897,174.287 91.214,174.680 91.607 C 174.764 91.691,177.112 91.343,179.897 90.833 C 185.545 89.798,192.225 89.062,195.966 89.063 L 198.438 89.063 198.438 68.750 L 198.438 48.438 195.801 48.493 C 194.351 48.524,191.322 48.690,189.070 48.862 M201.563 68.697 L 201.563 89.063 204.060 89.063 C 210.049 89.063,220.303 90.569,228.085 92.592 C 230.533 93.229,232.593 93.750,232.662 93.750 C 232.731 93.750,234.315 89.048,236.182 83.301 C 238.048 77.554,239.611 72.804,239.653 72.745 C 239.818 72.519,270.420 89.672,270.576 90.078 C 270.667 90.314,268.427 94.175,265.599 98.659 L 260.457 106.811 261.381 107.409 C 264.092 109.166,271.683 115.133,274.350 117.604 L 277.411 120.439 291.733 106.090 L 306.055 91.740 302.930 88.807 C 277.312 64.763,243.289 50.570,206.543 48.599 L 201.563 48.332 201.563 68.697 M57.196 66.895 C 25.061 100.656,4.810 150.827,4.691 196.973 L 4.688 198.438 24.940 198.438 L 45.192 198.438 45.461 192.493 C 45.928 182.137,47.738 170.342,50.404 160.274 C 51.041 157.867,51.563 155.553,51.563 155.130 C 51.563 154.708,51.694 154.303,51.855 154.232 C 52.017 154.160,52.835 152.080,53.675 149.609 C 60.331 130.020,71.403 111.413,85.869 95.508 L 89.422 91.602 75.279 77.441 C 67.501 69.653,61.024 63.281,60.886 63.281 C 60.748 63.281,59.088 64.907,57.196 66.895 M324.726 77.441 L 310.590 91.602 314.124 95.508 C 338.802 122.785,352.923 156.671,354.539 192.493 L 354.808 198.438 375.104 198.438 L 395.400 198.438 395.142 193.262 C 392.868 147.607,377.910 108.546,349.759 74.748 C 345.979 70.209,339.547 63.281,339.114 63.281 C 338.976 63.281,332.502 69.653,324.726 77.441 M104.050 82.749 C 101.715 84.666,98.486 87.474,96.875 88.988 L 93.945 91.741 108.294 106.118 L 122.643 120.494 124.701 118.505 C 125.832 117.412,127.988 115.495,129.492 114.246 C 130.996 112.997,132.284 111.833,132.354 111.659 C 132.493 111.315,109.148 79.566,108.618 79.377 C 108.441 79.314,106.385 80.831,104.050 82.749 M192.383 92.462 C 184.278 93.019,175.283 94.733,175.564 95.667 C 175.667 96.009,177.892 104.868,180.508 115.353 C 184.541 131.519,185.359 134.381,185.886 134.179 C 186.952 133.769,194.234 132.827,196.387 132.820 L 198.438 132.813 198.438 112.500 L 198.438 92.188 196.387 92.258 C 195.259 92.297,193.457 92.389,192.383 92.462 M201.563 112.500 L 201.563 132.813 203.613 132.820 C 206.398 132.829,212.856 133.789,216.313 134.707 C 217.872 135.121,219.214 135.347,219.294 135.210 C 220.264 133.544,231.609 97.097,231.230 96.862 C 228.713 95.307,209.908 92.214,202.832 92.192 L 201.563 92.188 201.563 112.500 M87.676 98.340 C 75.555 111.839,66.025 127.050,59.471 143.359 C 57.323 148.706,55.215 154.973,55.490 155.196 C 55.586 155.274,63.486 157.654,73.047 160.485 C 82.607 163.317,91.248 165.882,92.248 166.185 L 94.066 166.737 95.476 162.655 C 99.987 149.596,108.417 135.539,117.783 125.458 L 120.442 122.595 106.219 108.368 C 98.397 100.543,91.873 94.141,91.721 94.141 C 91.570 94.141,89.750 96.030,87.676 98.340 M293.781 108.368 L 279.558 122.595 282.217 125.458 C 298.849 143.361,309.457 168.670,310.799 193.652 L 311.057 198.438 331.356 198.438 L 351.656 198.438 351.393 193.848 C 349.257 156.549,336.352 125.120,312.059 98.055 C 310.127 95.902,308.424 94.141,308.275 94.141 C 308.126 94.141,301.603 100.543,293.781 108.368 M257.440 111.621 C 256.809 112.642,251.993 120.314,246.737 128.671 L 237.181 143.866 239.586 145.625 C 240.910 146.593,243.017 148.266,244.270 149.344 L 246.547 151.303 260.871 136.958 L 275.195 122.613 273.633 121.239 C 267.669 115.994,259.629 109.766,258.824 109.766 C 258.693 109.766,258.071 110.601,257.440 111.621 M131.836 116.479 C 130.547 117.575,128.438 119.412,127.148 120.561 L 124.805 122.650 139.120 136.968 L 153.435 151.286 155.988 149.178 C 157.392 148.019,158.553 146.980,158.567 146.869 C 158.615 146.508,134.973 114.717,134.570 114.600 C 134.355 114.537,133.125 115.383,131.836 116.479 M118.748 129.199 C 109.292 140.227,98.351 159.666,97.556 166.853 C 97.475 167.582,130.127 178.039,135.502 179.004 C 135.842 179.065,136.311 178.322,136.763 177.005 C 138.933 170.690,143.953 162.093,148.849 156.306 L 151.280 153.432 137.068 139.216 C 129.251 131.397,122.741 125.000,122.602 125.000 C 122.462 125.000,120.728 126.890,118.748 129.199 M262.932 139.216 L 248.720 153.432 251.151 156.306 C 260.120 166.907,265.575 179.839,266.896 193.634 L 267.356 198.438 287.621 198.438 L 307.885 198.438 307.630 194.629 C 305.906 168.899,297.315 147.808,280.742 128.613 C 279.026 126.626,277.514 125.000,277.383 125.000 C 277.252 125.000,270.749 131.397,262.932 139.216 M194.141 136.187 C 193.604 136.266,191.846 136.517,190.234 136.745 C 188.623 136.973,187.020 137.241,186.672 137.340 C 186.126 137.496,186.712 140.212,190.920 157.041 L 195.801 176.563 197.119 176.563 L 198.438 176.563 198.438 156.250 L 198.438 135.938 196.777 135.991 C 195.864 136.020,194.678 136.108,194.141 136.187 M201.563 156.146 L 201.563 176.463 203.613 176.665 C 204.741 176.777,205.707 176.830,205.759 176.783 C 205.972 176.593,217.969 139.408,217.969 138.936 C 217.969 138.157,210.777 136.628,204.590 136.092 L 201.563 135.830 201.563 156.146 M224.866 163.455 C 213.000 182.335,213.793 180.894,214.896 181.583 C 215.695 182.082,216.468 181.380,229.930 167.921 L 244.122 153.734 243.057 152.612 C 241.838 151.328,236.042 146.875,235.588 146.875 C 235.423 146.875,230.598 154.336,224.866 163.455 M158.057 151.619 L 155.791 153.639 169.983 167.835 C 177.789 175.643,184.301 182.031,184.454 182.031 C 184.778 182.031,161.051 149.856,160.615 149.702 C 160.454 149.646,159.303 150.509,158.057 151.619 M152.053 157.554 C 147.247 162.768,140.165 175.004,139.386 179.440 C 139.273 180.084,141.530 180.847,158.577 185.925 L 177.896 191.681 178.785 189.761 C 179.274 188.705,180.240 187.053,180.932 186.090 L 182.189 184.339 167.925 170.075 L 153.660 155.810 152.053 157.554 M232.062 170.066 L 217.834 184.318 219.359 186.593 C 220.197 187.844,220.921 188.932,220.969 189.010 C 221.016 189.089,226.262 186.935,232.626 184.225 C 245.917 178.565,244.781 178.876,245.277 180.762 C 246.673 186.066,248.842 195.034,248.747 195.108 C 248.684 195.157,243.359 195.907,236.914 196.775 L 225.195 198.353 244.629 198.395 C 259.941 198.429,264.061 198.334,264.056 197.949 C 263.873 184.736,257.127 167.584,248.378 158.083 L 246.289 155.815 232.062 170.066 M51.054 171.777 C 49.794 180.131,49.197 185.116,48.849 190.168 C 48.238 199.057,48.152 198.438,50.000 198.438 L 51.563 198.438 51.563 184.375 C 51.563 170.551,51.494 168.857,51.054 171.777 M196.884 180.371 C 196.889 180.747,197.225 182.285,197.630 183.789 L 198.367 186.523 198.402 183.105 C 198.435 179.936,198.381 179.688,197.656 179.688 C 197.169 179.688,196.878 179.945,196.884 180.371 M201.585 184.617 L 201.608 189.648 203.128 184.973 C 203.964 182.402,204.590 180.241,204.521 180.172 C 204.451 180.102,203.757 179.941,202.978 179.815 L 201.563 179.585 201.585 184.617 M211.642 184.473 C 211.336 184.956,210.673 186.055,210.169 186.914 L 209.253 188.477 211.256 186.550 C 212.795 185.068,213.159 184.503,212.831 184.108 C 212.281 183.445,212.296 183.441,211.642 184.473 M183.699 187.755 C 182.348 189.672,181.173 192.267,181.511 192.588 C 181.850 192.909,193.849 196.515,194.018 196.347 C 194.071 196.294,191.947 194.089,189.298 191.447 L 184.483 186.642 183.699 187.755 M211.306 190.888 C 209.062 193.165,207.490 194.938,207.813 194.828 C 208.135 194.718,210.547 193.699,213.172 192.562 L 217.946 190.496 217.092 188.976 C 215.670 186.446,215.692 186.438,211.306 190.888 M4.847 206.738 C 7.338 256.271,27.570 304.205,58.965 334.953 L 60.952 336.899 75.216 322.634 L 89.480 308.370 85.931 304.478 C 71.687 288.857,60.612 270.396,54.070 251.367 C 53.036 248.359,52.049 245.840,51.876 245.768 C 51.704 245.697,51.563 245.298,51.563 244.883 C 51.563 244.468,50.945 241.738,50.189 238.817 C 47.562 228.653,45.934 217.778,45.446 207.129 L 45.191 201.563 24.889 201.563 L 4.587 201.563 4.847 206.738 M48.438 202.703 C 48.438 208.014,50.113 223.698,51.148 228.072 C 51.358 228.959,51.499 224.252,51.523 215.527 L 51.563 201.563 50.000 201.563 C 48.534 201.563,48.438 201.633,48.438 202.703 M204.902 201.896 C 209.572 206.091,216.557 211.337,216.871 210.886 C 217.896 209.419,219.525 205.433,219.845 203.613 L 220.206 201.563 212.369 201.563 C 208.012 201.563,204.696 201.711,204.902 201.896 M223.230 203.223 C 222.742 206.147,221.547 209.516,220.298 211.484 C 219.128 213.329,219.110 213.422,219.796 214.066 C 221.268 215.446,250.333 239.063,250.559 239.063 C 250.689 239.063,251.865 237.437,253.173 235.449 C 259.475 225.872,262.823 216.077,263.855 204.199 L 264.084 201.563 243.795 201.563 L 223.506 201.563 223.230 203.223 M267.028 205.165 C 266.192 216.229,262.374 227.324,256.169 236.719 C 254.820 238.760,253.583 240.636,253.419 240.888 C 253.223 241.188,258.264 245.547,268.064 253.547 C 276.283 260.258,283.329 266.023,283.721 266.360 C 284.597 267.111,284.509 267.211,289.644 259.570 C 300.461 243.474,306.158 226.254,307.641 205.176 L 307.895 201.563 287.598 201.563 L 267.300 201.563 267.028 205.165 M310.937 203.613 C 310.934 223.630,301.789 249.613,288.812 266.478 C 287.850 267.728,287.167 268.918,287.294 269.123 C 287.467 269.404,315.389 292.350,317.845 294.230 C 318.419 294.669,320.610 291.963,325.347 284.961 C 341.336 261.330,349.726 235.934,351.384 206.152 L 351.640 201.563 331.289 201.563 L 310.938 201.563 310.937 203.613 M354.555 207.129 C 353.137 238.162,342.255 268.379,323.649 292.947 L 320.793 296.718 330.313 304.512 L 339.833 312.305 333.494 318.654 L 327.154 325.003 333.102 330.950 L 339.049 336.898 341.035 334.953 C 372.423 304.211,392.662 256.261,395.153 206.738 L 395.413 201.563 375.111 201.563 L 354.809 201.563 354.555 207.129 M191.992 210.160 L 186.914 215.264 187.891 216.013 C 189.487 217.236,192.766 218.776,193.962 218.863 L 195.076 218.945 196.177 212.695 C 197.692 204.091,197.903 204.219,191.992 210.160 M202.849 207.227 C 202.965 207.656,203.451 210.381,203.929 213.281 C 204.956 219.517,204.882 219.402,207.289 218.585 C 210.956 217.341,210.971 217.547,206.798 211.894 C 202.598 206.203,202.559 206.156,202.849 207.227 M158.789 213.907 C 148.477 217.000,139.828 219.610,139.570 219.707 C 139.145 219.866,141.270 226.166,141.992 226.888 C 142.359 227.255,178.125 209.246,178.125 208.695 C 178.125 208.050,180.001 207.544,158.789 213.907 M165.746 227.254 C 152.701 236.942,149.724 239.319,150.011 239.816 C 150.206 240.154,151.118 241.272,152.038 242.301 L 153.711 244.173 168.162 229.704 C 176.110 221.746,182.438 215.250,182.225 215.270 C 182.011 215.289,174.596 220.682,165.746 227.254 M170.167 231.981 L 155.787 246.365 158.460 248.600 C 166.441 255.272,179.650 261.793,186.011 262.200 L 187.646 262.305 190.869 243.555 C 192.642 233.242,194.183 224.342,194.293 223.776 C 194.478 222.827,194.320 222.683,192.266 221.924 C 190.204 221.163,187.238 219.557,185.340 218.175 C 184.587 217.626,183.833 218.311,170.167 231.981 M210.547 220.703 C 209.795 221.114,208.351 221.734,207.339 222.080 C 205.657 222.655,205.516 222.799,205.703 223.757 C 205.816 224.333,207.358 233.242,209.131 243.555 L 212.354 262.305 213.989 262.200 C 217.948 261.947,228.698 257.574,234.277 253.948 L 236.717 252.362 228.403 241.122 C 223.830 234.941,218.435 227.642,216.413 224.902 C 212.437 219.517,212.557 219.603,210.547 220.703 M116.602 226.485 C 106.074 229.618,97.392 232.231,97.309 232.291 C 96.779 232.672,101.900 245.034,104.925 250.679 C 109.042 258.360,116.600 268.904,121.164 273.334 L 122.868 274.987 137.088 260.764 L 151.307 246.540 150.277 245.243 C 147.490 241.731,146.963 241.238,146.428 241.643 C 139.382 246.975,128.037 255.110,127.783 255.012 C 127.390 254.862,116.325 240.180,116.491 240.030 C 116.552 239.975,121.611 237.431,127.734 234.375 C 133.857 231.319,138.915 228.776,138.974 228.723 C 139.108 228.603,136.286 221.382,135.972 221.039 C 135.845 220.901,127.129 223.352,116.602 226.485 M74.609 238.967 C 52.687 245.534,55.223 244.506,55.832 246.580 C 60.044 260.919,70.654 280.771,81.042 293.750 C 84.681 298.297,91.352 305.859,91.724 305.859 C 91.874 305.859,98.390 299.464,106.204 291.647 L 120.413 277.435 117.182 273.776 C 107.165 262.431,99.113 248.605,94.748 235.254 C 94.380 234.126,93.960 233.223,93.816 233.248 C 93.672 233.272,85.029 235.846,74.609 238.967 M139.122 263.027 L 124.927 277.225 128.263 280.278 C 138.742 289.869,152.031 297.539,166.406 302.293 C 171.939 304.124,179.742 305.983,180.104 305.557 C 180.308 305.316,186.655 268.715,186.847 266.669 C 186.902 266.084,186.280 265.791,183.398 265.047 C 173.552 262.502,163.392 257.232,156.323 251.002 C 154.966 249.806,153.735 248.828,153.586 248.828 C 153.438 248.828,146.929 255.217,139.122 263.027 M236.328 256.493 C 230.769 260.059,223.197 263.343,216.602 265.047 C 213.720 265.791,213.098 266.084,213.153 266.669 C 213.345 268.715,219.692 305.316,219.896 305.557 C 220.996 306.852,240.760 300.249,249.414 295.696 C 255.970 292.247,262.602 287.939,262.354 287.292 C 262.122 286.688,240.016 256.706,239.120 255.780 C 238.516 255.156,238.346 255.199,236.328 256.493 M108.201 293.973 L 93.945 308.258 96.289 310.419 C 124.487 336.416,160.786 351.077,198.145 351.559 C 198.306 351.561,198.438 342.422,198.438 331.250 L 198.438 310.938 188.860 310.938 L 179.282 310.938 179.509 310.033 C 179.724 309.178,179.556 309.089,176.489 308.432 C 158.111 304.491,140.770 295.661,126.281 282.868 C 124.300 281.119,122.629 279.688,122.568 279.688 C 122.507 279.688,116.042 286.116,108.201 293.973 M260.156 293.209 C 250.522 299.498,237.922 304.908,226.415 307.695 C 220.556 309.114,220.295 309.219,220.502 310.059 L 220.718 310.938 211.140 310.938 L 201.563 310.938 201.563 331.250 C 201.563 342.422,201.694 351.561,201.855 351.559 C 232.308 351.166,262.970 341.049,288.406 323.001 C 288.655 322.824,266.623 292.406,264.901 290.548 C 264.762 290.398,262.627 291.596,260.156 293.209 M77.328 324.821 L 63.107 339.046 64.659 340.651 C 95.775 372.817,149.460 394.895,197.559 395.305 L 198.438 395.313 198.438 375.060 L 198.438 354.808 193.066 354.551 C 161.575 353.048,131.780 342.314,106.856 323.492 C 102.742 320.385,95.647 314.386,94.336 312.907 C 93.906 312.422,93.103 311.703,92.552 311.310 L 91.549 310.595 77.328 324.821 M287.109 327.804 C 264.809 343.476,235.730 353.177,206.934 354.551 L 201.563 354.808 201.563 375.082 L 201.563 395.355 206.934 395.109 C 255.095 392.900,300.003 374.282,333.008 342.841 L 336.914 339.120 330.958 333.136 L 325.001 327.153 315.499 336.650 L 305.996 346.146 298.408 335.790 C 294.235 330.095,290.732 325.443,290.625 325.453 C 290.518 325.463,288.936 326.521,287.109 327.804 " stroke="none" fill="#fbfbfb" fill-rule="evenodd"></path><path id="path3" d="M190.532 4.964 C 191.018 5.057,191.721 5.054,192.094 4.956 C 192.468 4.858,192.070 4.782,191.211 4.786 C 190.352 4.790,190.046 4.870,190.532 4.964 M208.110 4.964 C 208.596 5.057,209.299 5.054,209.673 4.956 C 210.046 4.858,209.648 4.782,208.789 4.786 C 207.930 4.790,207.624 4.870,208.110 4.964 M191.113 45.582 C 191.489 45.680,192.104 45.680,192.480 45.582 C 192.856 45.484,192.549 45.403,191.797 45.403 C 191.045 45.403,190.737 45.484,191.113 45.582 M207.520 45.582 C 207.896 45.680,208.511 45.680,208.887 45.582 C 209.263 45.484,208.955 45.403,208.203 45.403 C 207.451 45.403,207.144 45.484,207.520 45.582 M191.113 48.707 C 191.489 48.805,192.104 48.805,192.480 48.707 C 192.856 48.609,192.549 48.528,191.797 48.528 C 191.045 48.528,190.737 48.609,191.113 48.707 M207.520 48.707 C 207.896 48.805,208.511 48.805,208.887 48.707 C 209.263 48.609,208.955 48.528,208.203 48.528 C 207.451 48.528,207.144 48.609,207.520 48.707 M64.453 59.180 C 63.504 60.146,62.816 60.938,62.923 60.938 C 63.031 60.938,63.895 60.146,64.844 59.180 C 65.793 58.213,66.481 57.422,66.374 57.422 C 66.266 57.422,65.402 58.213,64.453 59.180 M335.140 59.082 C 336.098 60.103,336.933 60.938,336.995 60.938 C 337.289 60.938,336.979 60.587,335.254 58.968 L 333.398 57.227 335.140 59.082 M59.161 64.551 L 57.617 66.211 59.277 64.667 C 60.190 63.818,60.938 63.070,60.938 63.007 C 60.938 62.711,60.597 63.007,59.161 64.551 M340.234 64.258 C 340.963 65.010,341.647 65.625,341.755 65.625 C 341.862 65.625,341.354 65.010,340.625 64.258 C 339.896 63.506,339.212 62.891,339.105 62.891 C 338.997 62.891,339.506 63.506,340.234 64.258 M238.670 85.944 C 235.658 95.295,235.680 95.047,237.798 95.719 C 241.751 96.973,251.079 101.330,255.297 103.892 L 257.682 105.341 262.086 98.337 C 264.508 94.486,266.340 91.194,266.155 91.023 C 265.763 90.659,241.877 77.344,241.616 77.344 C 241.519 77.344,240.193 81.214,238.670 85.944 M92.749 88.379 L 91.602 89.648 92.871 88.501 C 94.054 87.432,94.320 87.109,94.018 87.109 C 93.951 87.109,93.380 87.681,92.749 88.379 M305.859 87.232 C 305.859 87.299,306.431 87.870,307.129 88.501 L 308.398 89.648 307.251 88.379 C 306.182 87.196,305.859 86.930,305.859 87.232 M88.061 93.066 L 86.914 94.336 88.184 93.189 C 89.367 92.119,89.633 91.797,89.331 91.797 C 89.264 91.797,88.692 92.368,88.061 93.066 M310.547 91.919 C 310.547 91.986,311.118 92.558,311.816 93.189 L 313.086 94.336 311.939 93.066 C 310.869 91.883,310.547 91.617,310.547 91.919 M234.405 98.979 C 234.192 99.648,231.371 108.352,228.135 118.320 C 224.900 128.289,222.299 136.483,222.357 136.530 C 222.414 136.577,224.219 137.358,226.367 138.265 C 228.516 139.173,231.207 140.445,232.347 141.093 C 233.488 141.741,234.476 142.209,234.542 142.132 C 234.609 142.055,239.020 135.049,244.345 126.563 C 249.669 118.076,254.607 110.218,255.316 109.101 C 256.026 107.983,256.383 107.155,256.109 107.260 C 255.834 107.365,254.216 106.655,252.512 105.682 C 249.063 103.713,241.196 100.087,237.318 98.680 L 234.791 97.762 234.405 98.979 M215.073 158.497 C 211.667 168.970,208.816 177.716,208.737 177.932 C 208.657 178.147,209.198 178.514,209.939 178.745 L 211.285 179.167 221.365 163.139 C 233.363 144.061,233.428 143.955,232.910 144.275 C 232.687 144.414,230.332 143.488,227.678 142.219 C 225.023 140.950,222.495 139.809,222.059 139.684 C 221.324 139.472,220.811 140.855,215.073 158.497 M206.746 184.223 C 206.082 186.240,205.593 187.891,205.660 187.891 C 205.726 187.891,206.674 186.484,207.765 184.766 C 208.856 183.047,209.590 181.641,209.395 181.641 C 209.200 181.641,208.796 181.396,208.497 181.098 C 208.034 180.634,207.778 181.092,206.746 184.223 M4.786 191.602 C 4.790 192.461,4.870 192.767,4.964 192.281 C 5.057 191.795,5.054 191.092,4.956 190.718 C 4.858 190.345,4.782 190.742,4.786 191.602 M395.028 191.797 C 395.028 192.764,395.104 193.159,395.198 192.676 C 395.291 192.192,395.291 191.401,395.198 190.918 C 395.104 190.435,395.028 190.830,395.028 191.797 M45.403 192.188 C 45.403 192.939,45.484 193.247,45.582 192.871 C 45.680 192.495,45.680 191.880,45.582 191.504 C 45.484 191.128,45.403 191.436,45.403 192.188 M354.388 192.188 C 354.388 192.939,354.468 193.247,354.566 192.871 C 354.664 192.495,354.664 191.880,354.566 191.504 C 354.468 191.128,354.388 191.436,354.388 192.188 M48.528 192.578 C 48.528 193.330,48.609 193.638,48.707 193.262 C 48.805 192.886,48.805 192.271,48.707 191.895 C 48.609 191.519,48.528 191.826,48.528 192.578 M351.263 192.578 C 351.263 193.330,351.343 193.638,351.441 193.262 C 351.539 192.886,351.539 192.271,351.441 191.895 C 351.343 191.519,351.263 191.826,351.263 192.578 M310.638 193.359 C 310.638 194.111,310.718 194.419,310.816 194.043 C 310.914 193.667,310.914 193.052,310.816 192.676 C 310.718 192.300,310.638 192.607,310.638 193.359 M307.513 193.750 C 307.513 194.502,307.593 194.810,307.691 194.434 C 307.789 194.058,307.789 193.442,307.691 193.066 C 307.593 192.690,307.513 192.998,307.513 193.750 M307.513 206.250 C 307.513 207.002,307.593 207.310,307.691 206.934 C 307.789 206.558,307.789 205.942,307.691 205.566 C 307.593 205.190,307.513 205.498,307.513 206.250 M351.270 207.227 C 351.275 208.086,351.355 208.392,351.448 207.906 C 351.542 207.420,351.538 206.717,351.440 206.343 C 351.342 205.970,351.266 206.367,351.270 207.227 M45.411 207.617 C 45.415 208.477,45.495 208.782,45.589 208.296 C 45.682 207.810,45.679 207.107,45.581 206.734 C 45.483 206.360,45.407 206.758,45.411 207.617 M48.528 207.422 C 48.528 208.174,48.609 208.481,48.707 208.105 C 48.805 207.729,48.805 207.114,48.707 206.738 C 48.609 206.362,48.528 206.670,48.528 207.422 M354.395 207.617 C 354.400 208.477,354.480 208.782,354.573 208.296 C 354.667 207.810,354.663 207.107,354.565 206.734 C 354.467 206.360,354.391 206.758,354.395 207.617 M4.786 208.398 C 4.790 209.258,4.870 209.563,4.964 209.077 C 5.057 208.592,5.054 207.888,4.956 207.515 C 4.858 207.142,4.782 207.539,4.786 208.398 M395.020 208.398 C 395.025 209.258,395.105 209.563,395.198 209.077 C 395.292 208.592,395.288 207.888,395.190 207.515 C 395.092 207.142,395.016 207.539,395.020 208.398 M199.135 214.355 C 198.789 216.450,197.182 225.811,195.564 235.156 C 193.946 244.502,191.916 256.279,191.052 261.328 C 190.189 266.377,188.069 278.727,186.343 288.773 C 184.616 298.818,183.203 307.212,183.203 307.425 C 183.203 307.675,189.149 307.813,200.000 307.813 C 211.737 307.813,216.797 307.686,216.797 307.392 C 216.797 307.160,215.296 298.240,213.462 287.568 C 211.628 276.896,209.616 265.176,208.991 261.523 C 208.366 257.871,206.518 247.061,204.883 237.500 C 203.248 227.939,201.666 218.887,201.367 217.383 C 201.069 215.879,200.704 213.726,200.557 212.598 C 200.172 209.643,199.847 210.045,199.135 214.355 M120.313 272.778 C 120.313 272.846,120.884 273.417,121.582 274.048 L 122.852 275.195 121.704 273.926 C 120.635 272.742,120.313 272.477,120.313 272.778 M58.594 334.888 C 58.594 334.955,59.165 335.526,59.863 336.157 L 61.133 337.305 59.986 336.035 C 58.916 334.852,58.594 334.586,58.594 334.888 M340.014 336.035 L 338.867 337.305 340.137 336.157 C 340.835 335.526,341.406 334.955,341.406 334.888 C 341.406 334.586,341.084 334.852,340.014 336.035 M192.681 351.452 C 193.275 351.542,194.154 351.540,194.634 351.447 C 195.115 351.354,194.629 351.281,193.555 351.284 C 192.480 351.287,192.087 351.362,192.681 351.452 M205.572 351.452 C 206.166 351.542,207.044 351.540,207.525 351.447 C 208.005 351.354,207.520 351.281,206.445 351.284 C 205.371 351.287,204.978 351.362,205.572 351.452 M192.090 354.573 C 192.573 354.666,193.364 354.666,193.848 354.573 C 194.331 354.479,193.936 354.403,192.969 354.403 C 192.002 354.403,191.606 354.479,192.090 354.573 M206.152 354.573 C 206.636 354.666,207.427 354.666,207.910 354.573 C 208.394 354.479,207.998 354.403,207.031 354.403 C 206.064 354.403,205.669 354.479,206.152 354.573 M191.509 395.202 C 192.103 395.292,192.982 395.290,193.462 395.197 C 193.943 395.104,193.457 395.031,192.383 395.034 C 191.309 395.037,190.916 395.112,191.509 395.202 M206.744 395.202 C 207.337 395.292,208.216 395.290,208.697 395.197 C 209.177 395.104,208.691 395.031,207.617 395.034 C 206.543 395.037,206.150 395.112,206.744 395.202 " stroke="none" fill="#95e695" fill-rule="evenodd"></path><path id="path4" d="M226.875 190.151 C 218.560 193.727,211.795 196.691,211.842 196.737 C 211.918 196.813,215.017 196.417,227.344 194.756 C 229.600 194.452,234.434 193.810,238.086 193.330 C 241.738 192.849,244.775 192.420,244.834 192.377 C 245.129 192.160,242.745 183.598,242.397 183.621 C 242.174 183.635,235.189 186.574,226.875 190.151 M152.070 225.705 L 121.133 241.211 124.649 245.898 C 126.583 248.477,128.288 250.625,128.438 250.674 C 128.588 250.722,138.467 243.542,150.391 234.719 C 162.314 225.896,174.575 216.825,177.637 214.560 C 182.413 211.027,183.612 210.066,183.105 210.178 C 183.052 210.190,169.086 217.177,152.070 225.705 " stroke="none" fill="#2c62f8" fill-rule="evenodd"></path></g></svg>