<svg id="svg" version="1.1" xmlns="http://www.w3.org/2000/svg" xmlns:xlink="http://www.w3.org/1999/xlink" width="400" height="534.020618556701" viewBox="0, 0, 400,534.020618556701"><g id="svgg"><path id="path0" d="M287.467 58.667 C 287.320 58.813,287.200 129.463,287.200 215.667 L 287.200 372.400 309.200 372.400 L 331.200 372.400 331.200 215.400 L 331.200 58.400 309.467 58.400 C 297.513 58.400,287.613 58.520,287.467 58.667 M143.200 129.800 L 143.200 176.400 163.500 176.396 C 174.665 176.393,184.475 176.280,185.300 176.143 L 186.800 175.895 186.800 129.548 L 186.800 83.200 165.000 83.200 L 143.200 83.200 143.200 129.800 M68.800 318.600 L 68.800 475.600 90.800 475.600 L 112.800 475.600 112.800 318.600 L 112.800 161.600 90.800 161.600 L 68.800 161.600 68.800 318.600 M215.200 208.176 C 215.200 233.793,215.335 254.808,215.500 254.876 C 215.665 254.944,225.565 254.949,237.500 254.887 L 259.200 254.774 259.200 208.187 L 259.200 161.600 237.200 161.600 L 215.200 161.600 215.200 208.176 M143.200 325.800 C 143.200 374.673,143.168 373.766,144.800 371.800 C 145.231 371.281,148.092 371.200,166.049 371.200 L 186.800 371.200 186.800 325.200 L 186.800 279.200 165.000 279.200 L 143.200 279.200 143.200 325.800 M215.200 404.100 L 215.200 450.600 236.700 450.478 C 250.263 450.401,258.348 450.209,258.600 449.958 C 258.861 449.699,259.037 433.560,259.105 403.580 L 259.210 357.600 237.205 357.600 L 215.200 357.600 215.200 404.100 " stroke="none" fill="#120453" fill-rule="evenodd"></path><path id="path1" d="M0.000 267.000 L 0.000 534.000 200.000 534.000 L 400.000 534.000 400.000 267.000 L 400.000 0.000 200.000 0.000 L 0.000 0.000 0.000 267.000 M331.777 58.089 C 332.622 59.295,332.744 371.779,331.900 372.928 C 331.438 373.557,329.703 373.601,309.000 373.504 L 286.600 373.400 286.499 215.842 C 286.425 99.696,286.517 58.141,286.848 57.742 C 287.216 57.298,291.273 57.200,309.226 57.200 L 331.155 57.200 331.777 58.089 M187.269 82.662 C 188.212 83.516,188.420 174.547,187.482 176.400 L 186.976 177.400 165.268 177.503 C 150.759 177.573,143.302 177.468,142.780 177.189 C 141.622 176.570,141.543 83.106,142.700 82.432 C 144.038 81.652,186.394 81.871,187.269 82.662 M113.371 161.029 C 114.144 161.801,114.357 474.586,113.586 476.026 C 113.074 476.982,69.427 477.267,68.480 476.320 C 67.780 475.620,67.780 161.580,68.480 160.880 C 69.301 160.059,112.545 160.202,113.371 161.029 M259.586 161.174 C 260.477 162.839,260.126 255.105,259.226 255.586 C 258.721 255.857,251.023 256.000,237.000 256.000 C 222.977 256.000,215.279 255.857,214.774 255.586 C 213.684 255.003,213.542 162.116,214.629 161.029 C 215.709 159.948,259.005 160.088,259.586 161.174 M187.282 206.116 C 187.453 206.382,187.549 216.230,187.496 228.000 L 187.400 249.400 165.245 249.503 C 148.979 249.579,142.943 249.484,142.535 249.146 C 141.791 248.529,141.917 206.863,142.666 205.961 C 143.303 205.194,186.789 205.345,187.282 206.116 M187.586 278.774 C 188.057 279.653,188.111 370.313,187.642 372.000 L 187.364 373.000 165.227 373.103 C 149.211 373.178,142.939 373.082,142.545 372.754 C 141.789 372.127,141.725 279.235,142.480 278.480 C 143.427 277.533,187.074 277.818,187.586 278.774 M259.155 284.145 C 259.482 284.539,259.578 290.660,259.504 306.245 L 259.400 327.800 237.223 327.903 C 225.026 327.960,214.898 327.858,214.716 327.676 C 214.210 327.170,214.297 285.339,214.807 284.387 C 215.356 283.362,258.310 283.127,259.155 284.145 M259.520 356.880 C 260.217 357.577,260.217 450.423,259.520 451.120 C 258.827 451.813,215.173 451.813,214.480 451.120 C 213.783 450.423,213.783 357.577,214.480 356.880 C 215.173 356.187,258.827 356.187,259.520 356.880 " stroke="none" fill="#fbfbfb" fill-rule="evenodd"></path><path id="path2" d="M214.807 284.387 C 214.297 285.339,214.210 327.170,214.716 327.676 C 214.898 327.858,225.026 327.960,237.223 327.903 L 259.400 327.800 259.504 306.245 C 259.578 290.660,259.482 284.539,259.155 284.145 C 258.310 283.127,215.356 283.362,214.807 284.387 " stroke="none" fill="#e4048a" fill-rule="evenodd"></path><path id="path3" d="M142.666 205.961 C 141.917 206.863,141.791 248.529,142.535 249.146 C 142.943 249.484,148.979 249.579,165.245 249.503 L 187.400 249.400 187.496 228.000 C 187.549 216.230,187.453 206.382,187.282 206.116 C 186.789 205.345,143.303 205.194,142.666 205.961 " stroke="none" fill="#fccb04" fill-rule="evenodd"></path><path id="path4" d="M286.848 57.742 C 286.517 58.141,286.425 99.696,286.499 215.842 L 286.600 373.400 309.000 373.504 C 329.703 373.601,331.438 373.557,331.900 372.928 C 332.744 371.779,332.622 59.295,331.777 58.089 L 331.155 57.200 309.226 57.200 C 291.273 57.200,287.216 57.298,286.848 57.742 M331.200 215.400 L 331.200 372.400 309.200 372.400 L 287.200 372.400 287.200 215.667 C 287.200 129.463,287.320 58.813,287.467 58.667 C 287.613 58.520,297.513 58.400,309.467 58.400 L 331.200 58.400 331.200 215.400 M142.700 82.432 C 141.543 83.106,141.622 176.570,142.780 177.189 C 143.302 177.468,150.759 177.573,165.268 177.503 L 186.976 177.400 187.482 176.400 C 188.420 174.547,188.212 83.516,187.269 82.662 C 186.394 81.871,144.038 81.652,142.700 82.432 M186.800 129.548 L 186.800 175.895 185.300 176.143 C 184.475 176.280,174.665 176.393,163.500 176.396 L 143.200 176.400 143.200 129.800 L 143.200 83.200 165.000 83.200 L 186.800 83.200 186.800 129.548 M68.480 160.880 C 67.780 161.580,67.780 475.620,68.480 476.320 C 69.427 477.267,113.074 476.982,113.586 476.026 C 114.357 474.586,114.144 161.801,113.371 161.029 C 112.545 160.202,69.301 160.059,68.480 160.880 M214.629 161.029 C 213.542 162.116,213.684 255.003,214.774 255.586 C 215.279 255.857,222.977 256.000,237.000 256.000 C 251.023 256.000,258.721 255.857,259.226 255.586 C 260.126 255.105,260.477 162.839,259.586 161.174 C 259.005 160.088,215.709 159.948,214.629 161.029 M112.800 318.600 L 112.800 475.600 90.800 475.600 L 68.800 475.600 68.800 318.600 L 68.800 161.600 90.800 161.600 L 112.800 161.600 112.800 318.600 M259.200 208.187 L 259.200 254.774 237.500 254.887 C 225.565 254.949,215.665 254.944,215.500 254.876 C 215.335 254.808,215.200 233.793,215.200 208.176 L 215.200 161.600 237.200 161.600 L 259.200 161.600 259.200 208.187 M142.480 278.480 C 141.725 279.235,141.789 372.127,142.545 372.754 C 142.939 373.082,149.211 373.178,165.227 373.103 L 187.364 373.000 187.642 372.000 C 188.111 370.313,188.057 279.653,187.586 278.774 C 187.074 277.818,143.427 277.533,142.480 278.480 M186.800 325.200 L 186.800 371.200 166.049 371.200 C 148.092 371.200,145.231 371.281,144.800 371.800 C 143.168 373.766,143.200 374.673,143.200 325.800 L 143.200 279.200 165.000 279.200 L 186.800 279.200 186.800 325.200 M214.480 356.880 C 213.783 357.577,213.783 450.423,214.480 451.120 C 215.173 451.813,258.827 451.813,259.520 451.120 C 260.217 450.423,260.217 357.577,259.520 356.880 C 258.827 356.187,215.173 356.187,214.480 356.880 M259.105 403.580 C 259.037 433.560,258.861 449.699,258.600 449.958 C 258.348 450.209,250.263 450.401,236.700 450.478 L 215.200 450.600 215.200 404.100 L 215.200 357.600 237.205 357.600 L 259.210 357.600 259.105 403.580 " stroke="none" fill="#342c6c" fill-rule="evenodd"></path></g></svg>