<svg id="svg" version="1.1" xmlns="http://www.w3.org/2000/svg" xmlns:xlink="http://www.w3.org/1999/xlink" width="400" height="400" viewBox="0, 0, 400,400"><g id="svgg"><path id="path0" d="M134.400 40.600 C 133.992 41.091,134.020 41.200,134.551 41.200 C 134.908 41.200,135.200 40.930,135.200 40.600 C 135.200 40.270,135.132 40.000,135.049 40.000 C 134.966 40.000,134.674 40.270,134.400 40.600 M181.000 82.798 C 180.120 82.962,177.663 83.392,175.540 83.753 C 163.590 85.784,150.384 92.725,141.600 101.592 C 135.476 107.774,132.804 111.478,129.044 119.000 C 126.620 123.849,124.602 129.512,124.199 132.600 C 124.055 133.700,123.638 135.590,123.273 136.800 C 122.255 140.172,122.309 155.767,123.354 160.200 C 124.966 167.038,126.716 172.707,127.533 173.741 C 127.733 173.994,128.125 174.920,128.406 175.800 C 128.687 176.680,129.250 177.829,129.658 178.354 C 130.066 178.879,130.402 179.509,130.405 179.754 C 130.408 179.999,131.384 181.730,132.574 183.600 C 138.425 192.794,144.289 197.659,155.600 202.702 C 157.506 203.552,162.354 205.109,167.000 206.363 C 168.540 206.779,171.240 207.506,173.000 207.980 C 174.760 208.454,176.920 209.086,177.800 209.386 C 179.340 209.911,181.597 210.461,196.715 213.995 C 219.771 219.386,233.778 226.645,238.403 235.600 C 238.687 236.150,239.036 236.690,239.178 236.800 C 239.698 237.203,242.337 243.042,242.612 244.400 C 242.769 245.170,243.142 246.281,243.443 246.869 C 246.992 253.818,243.444 273.506,237.207 281.478 C 232.882 287.005,224.989 293.451,221.134 294.604 C 220.620 294.758,219.802 295.134,219.316 295.440 C 215.116 298.087,200.748 299.510,195.200 297.828 C 193.990 297.461,192.253 296.998,191.339 296.800 C 187.628 295.993,179.682 291.611,176.400 288.561 C 175.630 287.845,174.622 286.931,174.161 286.530 C 172.669 285.232,165.390 275.903,158.718 266.737 C 142.394 244.311,136.593 238.583,128.000 236.407 C 127.010 236.156,125.473 235.682,124.584 235.354 C 119.012 233.292,105.656 235.783,99.522 240.029 C 97.798 241.223,86.665 249.468,82.733 252.463 C 81.046 253.749,79.561 254.800,79.433 254.800 C 79.305 254.800,78.885 255.086,78.500 255.435 C 78.115 255.784,76.360 257.132,74.600 258.431 C 72.840 259.731,71.040 261.076,70.600 261.420 C 70.160 261.764,68.360 263.114,66.600 264.420 C 64.840 265.726,63.040 267.076,62.600 267.420 C 62.160 267.764,60.360 269.114,58.600 270.420 C 54.942 273.134,54.859 273.197,50.745 276.412 C 49.065 277.726,47.490 278.800,47.245 278.800 C 47.000 278.800,46.800 278.975,46.800 279.190 C 46.800 279.404,46.260 279.859,45.600 280.200 C 44.085 280.983,43.983 282.720,45.331 284.778 C 45.843 285.560,46.714 286.920,47.267 287.800 C 48.673 290.038,49.653 291.510,50.701 292.956 C 51.197 293.640,52.052 294.872,52.602 295.692 C 54.875 299.089,51.169 301.379,88.338 273.600 C 97.316 266.890,105.671 260.650,106.903 259.733 C 111.825 256.072,112.538 255.800,117.200 255.800 C 123.439 255.800,125.843 257.381,130.888 264.800 C 131.262 265.350,132.700 267.275,134.084 269.077 C 135.468 270.880,138.250 274.570,140.267 277.277 C 154.878 296.889,155.969 298.295,158.795 301.153 C 162.826 305.230,169.571 310.459,172.485 311.767 C 173.208 312.091,174.250 312.623,174.800 312.949 C 187.376 320.404,208.149 321.777,224.323 316.223 C 239.260 311.093,253.824 297.889,260.084 283.800 C 262.611 278.113,263.200 276.674,263.200 276.196 C 263.200 275.918,263.656 274.117,264.213 272.195 C 270.083 251.937,261.806 225.882,245.400 212.974 C 244.300 212.108,243.340 211.265,243.267 211.100 C 243.193 210.935,242.964 210.800,242.757 210.800 C 242.550 210.800,241.481 210.181,240.382 209.425 C 239.282 208.669,237.352 207.568,236.091 206.978 C 234.831 206.389,233.530 205.689,233.200 205.422 C 232.870 205.156,231.790 204.708,230.800 204.428 C 229.810 204.147,228.803 203.758,228.563 203.562 C 227.234 202.481,213.749 198.523,204.800 196.587 C 199.893 195.526,192.634 193.844,180.600 190.981 C 177.659 190.281,174.478 189.156,170.800 187.514 C 169.590 186.974,166.198 185.467,163.263 184.166 C 150.951 178.708,142.996 164.272,143.002 147.400 C 143.018 106.081,199.651 87.580,223.818 121.000 C 224.799 122.356,228.557 126.967,229.198 127.600 C 229.609 128.007,232.251 131.433,232.898 132.400 C 233.267 132.950,234.700 134.871,236.084 136.669 C 237.468 138.466,238.907 140.356,239.282 140.869 C 240.403 142.400,244.735 148.133,245.494 149.090 C 245.882 149.579,246.740 150.709,247.400 151.601 C 265.266 175.745,281.637 182.118,301.800 172.776 C 310.086 168.937,312.717 168.103,314.375 168.790 C 315.607 169.300,318.400 172.077,318.400 172.791 C 318.400 174.020,322.453 174.828,324.126 173.932 C 324.959 173.487,339.675 159.912,344.474 155.162 C 348.600 151.079,349.670 148.561,348.245 146.286 C 347.940 145.799,346.916 143.600,345.970 141.400 C 342.588 133.542,342.432 133.469,331.285 134.558 C 327.388 134.939,322.220 135.425,319.800 135.638 C 307.366 136.732,308.141 136.602,306.649 137.844 C 304.823 139.362,304.515 140.884,305.566 143.200 C 307.015 146.394,305.337 150.800,302.672 150.800 C 302.347 150.800,301.298 151.248,300.341 151.795 C 299.383 152.343,298.268 152.793,297.862 152.795 C 297.456 152.798,296.646 153.135,296.062 153.544 C 288.300 158.985,275.615 155.413,268.786 145.862 C 268.024 144.796,267.130 143.615,266.800 143.236 C 265.217 141.421,260.221 134.812,258.005 131.600 C 256.272 129.090,241.277 109.045,239.302 106.600 C 236.915 103.644,231.092 98.092,227.800 95.634 C 222.868 91.951,222.072 91.495,213.400 87.373 C 211.012 86.238,204.584 84.386,200.833 83.752 C 198.725 83.396,196.190 82.957,195.200 82.776 C 192.994 82.374,183.196 82.389,181.000 82.798 " stroke="none" fill="#f3f5f8" fill-rule="evenodd"></path><path id="path1" d="M226.800 33.939 C 226.800 34.125,226.395 34.467,225.900 34.699 C 225.111 35.068,225.209 35.119,226.700 35.113 C 228.471 35.105,228.728 34.888,227.920 34.080 C 227.362 33.522,226.800 33.451,226.800 33.939 M234.643 36.233 C 234.286 37.163,234.358 37.485,234.776 36.826 C 235.091 36.327,235.230 36.327,235.835 36.826 C 236.476 37.355,236.493 37.329,236.051 36.500 C 235.489 35.444,234.982 35.348,234.643 36.233 M184.200 40.645 C 172.828 41.338,152.340 45.263,143.800 48.384 C 142.700 48.786,140.720 49.472,139.400 49.908 C 137.087 50.673,134.246 51.739,129.600 53.587 C 105.562 63.148,80.879 82.647,63.759 105.600 C 59.143 111.790,55.777 116.647,54.404 119.100 C 53.881 120.035,53.306 120.800,53.126 120.800 C 52.947 120.800,52.800 120.983,52.800 121.206 C 52.800 121.430,51.360 124.239,49.600 127.449 C 47.840 130.659,46.400 133.399,46.400 133.537 C 46.400 133.675,45.964 134.691,45.432 135.794 C 38.435 150.294,35.175 164.274,38.389 165.994 C 39.368 166.518,39.315 166.546,43.400 163.411 C 45.160 162.060,47.171 160.605,47.868 160.178 C 48.565 159.750,50.725 158.411,52.668 157.201 C 54.611 155.992,56.830 154.691,57.600 154.310 C 58.370 153.929,59.270 153.451,59.600 153.249 C 60.907 152.447,64.501 150.800,64.944 150.800 C 65.203 150.800,66.077 150.350,66.886 149.800 C 67.695 149.250,68.682 148.798,69.079 148.795 C 69.475 148.793,70.540 148.367,71.444 147.850 C 72.348 147.333,73.788 146.780,74.644 146.621 C 75.500 146.462,76.518 146.047,76.906 145.698 C 77.295 145.350,78.630 144.926,79.874 144.758 C 81.117 144.589,82.637 144.079,83.251 143.625 C 83.981 143.086,84.977 142.800,86.128 142.800 C 87.322 142.800,88.339 142.494,89.291 141.848 C 90.352 141.128,91.384 140.857,93.527 140.736 C 95.763 140.610,96.560 140.389,97.306 139.688 C 98.132 138.913,98.688 138.800,101.697 138.800 C 105.065 138.800,106.400 138.338,106.400 137.171 C 106.400 136.967,107.390 136.800,108.600 136.800 C 109.810 136.800,110.800 136.959,110.800 137.154 C 110.800 137.495,108.402 138.800,107.777 138.800 C 107.348 138.800,95.162 144.899,94.417 145.487 C 92.568 146.944,90.687 148.114,88.001 149.478 C 86.351 150.315,84.694 151.379,84.317 151.842 C 83.941 152.306,82.591 153.206,81.317 153.842 C 80.044 154.479,78.777 155.300,78.501 155.667 C 78.226 156.034,77.325 156.740,76.500 157.236 C 75.675 157.732,73.891 159.186,72.535 160.469 C 71.179 161.751,69.908 162.800,69.712 162.800 C 69.516 162.800,67.295 164.775,64.777 167.190 C 62.260 169.604,60.049 171.584,59.865 171.590 C 59.333 171.606,54.376 176.498,53.774 177.600 C 53.474 178.150,51.332 180.571,49.014 182.980 C 46.696 185.390,44.800 187.494,44.800 187.656 C 44.800 187.936,43.252 189.904,40.320 193.352 C 39.594 194.205,38.865 195.257,38.699 195.690 C 38.533 196.122,38.073 196.560,37.677 196.664 C 37.280 196.768,36.742 197.336,36.481 197.926 C 36.030 198.947,34.660 200.975,33.387 202.505 C 33.064 202.892,32.800 203.391,32.800 203.613 C 32.800 203.834,32.350 204.729,31.800 205.600 C 31.250 206.471,30.800 207.354,30.800 207.561 C 30.800 207.769,30.346 208.478,29.792 209.136 C 29.238 209.795,28.291 211.564,27.689 213.067 C 26.983 214.829,26.282 215.937,25.717 216.186 C 24.407 216.763,24.215 219.794,24.946 228.400 C 26.057 241.474,32.115 260.705,40.131 276.600 C 40.908 278.140,41.764 280.210,42.035 281.200 L 42.527 283.000 42.832 281.607 C 43.185 279.993,44.511 278.724,50.359 274.400 C 52.591 272.750,54.848 271.040,55.375 270.600 C 55.902 270.160,57.707 268.810,59.386 267.600 C 61.065 266.390,63.053 264.950,63.803 264.400 C 64.553 263.850,65.812 262.950,66.600 262.400 C 68.665 260.959,70.839 259.325,72.062 258.295 C 72.646 257.803,73.783 256.950,74.589 256.400 C 76.062 255.394,80.320 252.135,82.655 250.226 C 83.345 249.662,84.044 249.200,84.209 249.200 C 84.374 249.200,84.911 248.795,85.404 248.300 C 85.897 247.805,86.960 246.950,87.767 246.400 C 90.065 244.833,92.135 243.309,92.916 242.609 C 93.309 242.257,94.074 241.767,94.616 241.520 C 95.157 241.273,95.600 240.950,95.600 240.802 C 95.600 240.365,99.803 237.600,100.468 237.600 C 100.803 237.600,101.493 237.239,102.002 236.798 C 102.510 236.358,103.663 235.812,104.563 235.585 C 105.463 235.359,107.002 234.789,107.983 234.318 C 110.696 233.014,124.507 233.003,127.209 234.301 C 128.194 234.775,129.791 235.337,130.758 235.551 C 131.725 235.766,132.625 236.109,132.758 236.314 C 132.891 236.519,133.855 237.062,134.900 237.521 C 135.945 237.980,136.800 238.526,136.800 238.734 C 136.800 238.943,137.256 239.228,137.814 239.368 C 138.972 239.658,146.800 247.318,146.800 248.160 C 146.800 248.465,147.072 248.819,147.403 248.946 C 147.735 249.073,148.230 249.669,148.503 250.270 C 148.777 250.870,149.360 251.767,149.800 252.262 C 151.753 254.459,152.800 255.957,152.800 256.555 C 152.800 256.910,153.074 257.200,153.409 257.200 C 153.743 257.200,154.238 257.686,154.509 258.281 C 154.779 258.876,155.360 259.767,155.800 260.262 C 157.546 262.226,158.800 263.931,158.800 264.341 C 158.800 264.578,159.148 264.958,159.573 265.186 C 159.998 265.413,160.462 265.965,160.604 266.412 C 160.746 266.860,161.253 267.639,161.731 268.145 C 162.209 268.651,163.050 269.660,163.600 270.387 C 164.150 271.114,165.095 272.293,165.700 273.007 C 166.305 273.721,166.800 274.447,166.800 274.619 C 166.800 274.792,167.080 275.218,167.423 275.566 C 167.992 276.145,171.650 280.884,172.600 282.273 C 173.473 283.549,177.442 287.479,178.100 287.719 C 178.485 287.860,178.800 288.231,178.800 288.544 C 178.800 288.857,179.205 289.218,179.700 289.346 C 180.195 289.474,181.123 290.034,181.762 290.590 C 182.401 291.145,183.142 291.600,183.408 291.600 C 183.674 291.600,184.328 291.943,184.860 292.361 C 185.393 292.780,186.632 293.337,187.614 293.599 C 188.596 293.860,189.670 294.312,190.000 294.602 C 190.330 294.892,191.500 295.251,192.600 295.400 C 193.700 295.548,196.654 296.015,199.164 296.437 C 203.693 297.198,203.759 297.198,207.884 296.402 C 210.170 295.961,212.623 295.600,213.336 295.600 C 214.048 295.600,215.344 295.236,216.215 294.790 C 217.087 294.345,218.479 293.797,219.308 293.573 C 220.138 293.348,221.468 292.723,222.264 292.182 C 223.060 291.642,223.929 291.200,224.194 291.200 C 224.459 291.200,225.002 290.840,225.400 290.400 C 225.798 289.960,226.345 289.600,226.615 289.600 C 227.326 289.600,234.067 282.912,235.437 280.847 C 236.077 279.882,237.092 278.352,237.694 277.447 C 238.295 276.541,238.888 275.530,239.012 275.200 C 239.136 274.870,239.666 273.700,240.189 272.600 C 240.712 271.500,241.261 269.790,241.409 268.800 C 241.558 267.810,242.022 266.212,242.440 265.249 C 243.556 262.678,243.556 252.122,242.440 249.551 C 242.022 248.588,241.554 246.990,241.401 246.000 C 241.248 245.010,240.858 243.782,240.534 243.272 C 240.210 242.761,239.696 241.638,239.391 240.775 C 239.087 239.913,238.646 238.980,238.411 238.703 C 238.176 238.427,237.271 237.120,236.400 235.800 C 234.685 233.203,230.724 228.800,230.101 228.800 C 229.890 228.800,229.233 228.352,228.641 227.803 C 228.050 227.255,227.119 226.695,226.574 226.558 C 226.028 226.421,225.361 225.993,225.091 225.608 C 224.821 225.223,224.023 224.781,223.319 224.626 C 222.614 224.471,221.604 224.004,221.074 223.587 C 220.544 223.170,219.353 222.659,218.427 222.451 C 217.500 222.242,216.441 221.817,216.071 221.505 C 215.702 221.193,214.418 220.721,213.218 220.457 C 212.019 220.193,210.759 219.738,210.418 219.447 C 210.078 219.155,208.450 218.701,206.800 218.438 C 205.150 218.175,203.440 217.726,203.000 217.439 C 202.560 217.152,200.676 216.696,198.813 216.424 C 196.951 216.153,194.971 215.702,194.413 215.423 C 193.856 215.144,191.966 214.690,190.212 214.415 C 188.459 214.139,186.569 213.734,186.012 213.514 C 185.456 213.295,183.560 212.793,181.800 212.399 C 180.040 212.006,178.060 211.495,177.400 211.264 C 176.740 211.033,174.580 210.380,172.600 209.814 C 170.620 209.247,167.920 208.413,166.600 207.959 C 165.280 207.505,163.376 207.005,162.370 206.848 C 161.363 206.690,159.868 206.165,159.047 205.681 C 158.226 205.196,157.106 204.800,156.557 204.800 C 155.438 204.800,153.200 203.761,153.200 203.241 C 153.200 203.055,152.490 202.789,151.622 202.650 C 150.754 202.511,149.809 202.067,149.522 201.663 C 149.235 201.260,148.500 200.806,147.890 200.654 C 147.279 200.503,146.455 200.055,146.059 199.659 C 145.663 199.263,145.020 198.816,144.629 198.667 C 142.533 197.862,133.761 189.382,133.356 187.768 C 133.223 187.236,132.970 186.800,132.795 186.800 C 132.510 186.800,131.010 184.376,129.203 181.000 C 128.850 180.340,128.357 179.440,128.108 179.000 C 127.183 177.367,125.200 172.921,125.200 172.481 C 125.200 172.230,124.832 171.318,124.382 170.455 C 123.932 169.591,123.464 168.191,123.342 167.342 C 123.219 166.494,122.779 164.852,122.363 163.693 C 120.619 158.839,120.280 141.348,121.798 134.606 C 122.144 133.069,122.407 131.089,122.383 130.206 C 122.359 129.323,122.615 127.880,122.952 127.000 C 123.289 126.120,123.573 125.166,123.582 124.881 C 123.592 124.595,123.960 123.616,124.400 122.706 C 124.840 121.795,125.200 120.847,125.200 120.600 C 125.200 120.352,125.648 119.221,126.195 118.086 C 126.743 116.951,127.351 115.311,127.546 114.441 L 127.902 112.860 124.851 112.627 C 117.915 112.098,106.972 111.665,93.400 111.382 C 82.347 111.152,78.817 110.956,78.211 110.541 C 77.630 110.142,75.760 110.000,71.111 110.000 L 64.800 110.000 64.800 108.447 C 64.800 107.230,64.973 106.848,65.600 106.684 C 66.040 106.569,66.407 106.143,66.416 105.737 C 66.425 105.332,66.965 104.377,67.616 103.615 C 68.267 102.853,68.800 101.908,68.800 101.515 C 68.800 101.122,69.052 100.800,69.360 100.800 C 69.669 100.800,70.293 100.215,70.748 99.500 C 71.992 97.543,72.893 96.345,74.000 95.173 C 74.550 94.591,75.450 93.545,76.000 92.848 C 80.343 87.343,93.143 75.853,101.251 70.181 C 103.093 68.893,104.690 67.739,104.800 67.616 C 105.125 67.253,108.515 65.049,109.600 64.495 C 110.150 64.214,111.590 63.368,112.800 62.616 C 114.010 61.863,115.855 60.855,116.900 60.375 C 117.945 59.894,118.800 59.379,118.800 59.230 C 118.800 59.080,119.700 58.634,120.800 58.239 C 121.900 57.843,122.800 57.386,122.800 57.223 C 122.800 57.060,123.552 56.701,124.471 56.426 C 125.390 56.151,126.515 55.689,126.971 55.400 C 127.427 55.112,129.014 54.406,130.497 53.831 C 131.981 53.257,134.321 52.350,135.697 51.815 C 144.108 48.548,156.126 45.247,166.400 43.381 C 168.208 43.053,179.706 41.652,184.526 41.173 C 207.628 38.877,237.605 43.891,259.200 53.665 C 263.554 55.635,271.990 59.996,274.600 61.625 C 275.480 62.174,276.498 62.798,276.863 63.012 C 277.227 63.225,278.643 64.165,280.008 65.100 C 281.374 66.035,282.636 66.800,282.812 66.800 C 282.989 66.800,283.193 66.935,283.267 67.100 C 283.340 67.265,284.480 68.210,285.800 69.199 C 293.759 75.167,302.132 82.793,307.734 89.178 C 309.750 91.476,311.805 93.779,312.300 94.296 C 312.795 94.813,313.200 95.337,313.200 95.461 C 313.200 95.652,315.487 98.717,316.802 100.289 C 317.027 100.559,317.385 101.234,317.596 101.789 C 317.807 102.345,318.156 102.800,318.371 102.800 C 318.586 102.800,319.071 103.475,319.448 104.300 C 319.825 105.125,320.357 106.070,320.630 106.400 C 321.088 106.953,321.352 108.287,321.244 109.500 C 321.211 109.879,319.502 110.000,314.160 110.000 C 308.957 110.000,306.792 110.147,305.860 110.565 C 304.907 110.993,301.532 111.194,292.000 111.393 C 285.070 111.538,276.430 111.823,272.800 112.027 C 269.170 112.230,262.420 112.555,257.800 112.749 C 253.180 112.942,249.355 113.123,249.300 113.150 C 248.871 113.363,249.313 115.200,249.792 115.200 C 250.118 115.200,250.502 115.666,250.645 116.236 C 250.788 116.806,251.331 117.732,251.852 118.294 C 252.374 118.857,252.800 119.644,252.800 120.044 C 252.800 120.444,253.160 120.965,253.600 121.200 C 254.040 121.435,254.400 121.886,254.400 122.200 C 254.400 122.515,254.903 123.363,255.518 124.086 C 256.132 124.809,256.987 125.922,257.418 126.560 C 257.848 127.197,258.516 128.187,258.901 128.760 C 259.287 129.332,259.920 130.430,260.308 131.200 C 261.221 133.012,262.120 134.371,264.675 137.800 C 265.822 139.340,267.625 141.764,268.681 143.186 C 271.253 146.653,275.433 150.728,277.400 151.687 C 278.280 152.116,279.540 152.767,280.200 153.134 C 282.404 154.357,291.209 154.082,294.100 152.700 C 298.488 150.602,300.605 149.691,301.673 149.445 C 302.264 149.309,303.138 148.649,303.616 147.978 C 304.518 146.711,304.517 146.349,303.601 142.800 C 302.059 136.826,304.841 134.533,314.574 133.755 C 318.079 133.475,323.083 132.942,325.694 132.570 C 337.647 130.871,343.939 132.299,346.089 137.200 C 347.655 140.773,348.800 142.945,348.800 142.346 C 348.800 142.010,348.350 140.850,347.801 139.768 C 347.251 138.686,346.615 137.260,346.388 136.600 C 345.578 134.250,343.790 132.833,340.356 131.817 C 338.433 131.248,338.119 130.997,337.448 129.490 C 336.565 127.505,332.301 119.618,331.020 117.600 C 315.863 93.723,299.051 76.402,278.000 62.974 C 274.074 60.470,263.674 54.935,260.400 53.607 C 259.410 53.206,256.890 52.160,254.800 51.283 C 234.763 42.875,209.659 39.092,184.200 40.645 M164.800 114.516 C 163.810 114.747,162.865 115.159,162.700 115.432 C 162.535 115.705,161.590 116.321,160.600 116.800 C 159.610 117.279,158.800 117.840,158.800 118.046 C 158.800 118.251,158.350 118.591,157.800 118.800 C 157.250 119.009,156.800 119.459,156.800 119.800 C 156.800 120.141,156.350 120.591,155.800 120.800 C 155.250 121.009,154.800 121.434,154.800 121.744 C 154.800 122.054,154.350 122.603,153.800 122.963 C 153.250 123.324,152.800 123.871,152.800 124.180 C 152.800 124.489,152.379 125.073,151.864 125.479 C 151.348 125.884,150.692 126.662,150.405 127.208 C 150.118 127.753,149.671 128.326,149.412 128.480 C 149.153 128.635,148.697 129.535,148.399 130.480 C 148.102 131.426,147.641 132.470,147.377 132.800 C 144.349 136.576,144.433 159.130,147.488 162.874 C 147.724 163.163,148.147 164.210,148.428 165.200 C 148.708 166.190,149.175 167.282,149.464 167.626 C 149.753 167.970,150.201 168.870,150.459 169.626 C 150.717 170.382,151.349 171.509,151.864 172.131 C 152.379 172.753,152.800 173.419,152.800 173.613 C 152.800 173.806,153.250 174.414,153.800 174.964 C 154.350 175.514,154.800 176.221,154.800 176.535 C 154.800 176.850,155.173 177.204,155.630 177.324 C 156.086 177.443,156.557 177.914,156.676 178.370 C 156.796 178.827,157.114 179.200,157.384 179.200 C 157.655 179.200,158.399 179.653,159.038 180.207 C 159.677 180.760,160.920 181.407,161.800 181.644 C 162.680 181.881,163.670 182.310,164.000 182.598 C 164.330 182.886,165.410 183.350,166.400 183.630 C 167.390 183.909,168.470 184.354,168.800 184.618 C 169.130 184.883,170.120 185.322,171.000 185.594 C 171.880 185.866,173.023 186.355,173.540 186.680 C 174.703 187.411,181.900 189.393,191.400 191.598 C 195.360 192.518,200.220 193.694,202.200 194.212 C 204.180 194.730,206.696 195.271,207.791 195.415 C 208.885 195.559,210.415 195.994,211.191 196.382 C 211.966 196.770,213.667 197.208,214.972 197.356 C 216.277 197.503,217.897 197.957,218.572 198.365 C 219.247 198.772,220.700 199.233,221.800 199.388 C 222.900 199.543,224.340 199.999,225.000 200.402 C 225.660 200.804,226.877 201.258,227.703 201.412 C 228.530 201.565,229.620 202.015,230.125 202.412 C 230.630 202.809,231.702 203.258,232.509 203.409 C 233.315 203.561,234.355 204.014,234.820 204.418 C 235.285 204.821,236.179 205.264,236.805 205.401 C 237.432 205.539,238.172 205.925,238.450 206.260 C 238.727 206.595,239.645 207.145,240.489 207.482 C 241.333 207.820,242.204 208.435,242.426 208.848 C 242.647 209.262,243.173 209.600,243.594 209.600 C 244.016 209.600,244.504 209.829,244.680 210.110 C 244.856 210.390,245.531 210.958,246.180 211.371 C 248.238 212.683,255.377 220.106,256.980 222.600 C 257.828 223.920,258.944 225.640,259.461 226.422 C 259.977 227.203,260.400 228.017,260.400 228.229 C 260.400 228.441,260.850 229.277,261.400 230.086 C 261.950 230.895,262.400 231.810,262.400 232.119 C 262.400 232.428,262.829 233.488,263.354 234.475 C 263.878 235.461,264.438 237.039,264.597 237.980 C 264.756 238.922,265.213 240.437,265.612 241.346 C 266.011 242.256,266.456 244.530,266.602 246.400 C 266.747 248.270,267.121 251.097,267.433 252.683 C 268.152 256.341,268.153 259.665,267.436 262.875 C 267.125 264.264,266.752 267.020,266.606 269.000 C 266.443 271.203,266.060 273.150,265.619 274.018 C 265.222 274.799,264.769 276.239,264.611 277.218 C 264.453 278.198,263.981 279.595,263.562 280.323 C 263.143 281.050,262.800 281.847,262.800 282.093 C 262.800 282.610,259.966 288.501,259.574 288.800 C 259.430 288.910,259.014 289.580,258.651 290.289 C 257.978 291.603,256.578 293.758,255.712 294.813 C 250.044 301.720,248.710 303.125,244.279 306.849 C 243.003 307.922,241.698 308.800,241.379 308.800 C 241.061 308.800,240.800 308.975,240.800 309.189 C 240.800 309.641,236.062 312.800,235.382 312.800 C 235.130 312.800,234.607 313.150,234.221 313.577 C 233.834 314.005,232.976 314.473,232.316 314.619 C 231.655 314.764,230.478 315.314,229.701 315.841 C 228.924 316.369,227.846 316.800,227.306 316.800 C 226.766 316.800,225.807 317.168,225.176 317.617 C 224.543 318.068,223.081 318.535,221.914 318.660 C 220.751 318.784,218.990 319.265,218.000 319.728 C 214.507 321.362,191.865 321.411,188.800 319.790 C 188.030 319.383,186.342 318.921,185.049 318.763 C 183.756 318.605,182.226 318.128,181.649 317.704 C 181.072 317.279,179.899 316.819,179.043 316.682 C 178.186 316.544,177.094 316.065,176.617 315.616 C 176.139 315.167,175.436 314.800,175.054 314.800 C 174.156 314.800,172.000 313.686,172.000 313.222 C 172.000 313.025,171.479 312.749,170.841 312.609 C 170.204 312.469,169.366 312.005,168.979 311.577 C 168.593 311.150,168.066 310.800,167.810 310.800 C 167.554 310.800,166.773 310.305,166.075 309.700 C 165.378 309.095,164.159 308.150,163.368 307.600 C 161.848 306.543,155.555 300.428,154.200 298.691 C 152.271 296.219,151.836 295.653,149.874 293.056 C 148.733 291.547,147.620 290.033,147.400 289.691 C 147.180 289.350,146.759 288.784,146.464 288.435 C 146.169 288.086,144.860 286.360,143.555 284.600 C 142.250 282.840,140.907 281.040,140.569 280.600 C 140.231 280.160,138.895 278.360,137.599 276.600 C 136.303 274.840,134.333 272.199,133.222 270.732 C 132.110 269.264,131.200 267.935,131.200 267.778 C 131.200 267.620,130.795 267.089,130.300 266.596 C 129.805 266.103,128.950 265.024,128.400 264.198 C 126.596 261.490,123.965 258.856,122.810 258.602 C 122.190 258.466,121.366 258.005,120.979 257.577 C 120.399 256.936,119.738 256.800,117.200 256.800 C 114.662 256.800,114.001 256.936,113.421 257.577 C 113.034 258.005,112.218 258.464,111.609 258.598 C 110.999 258.732,110.086 259.282,109.581 259.821 C 109.075 260.359,108.454 260.800,108.202 260.800 C 107.950 260.800,107.353 261.250,106.875 261.800 C 106.397 262.350,105.832 262.800,105.621 262.800 C 105.409 262.800,104.797 263.205,104.261 263.700 C 103.724 264.195,102.443 265.230,101.413 266.000 C 100.384 266.770,99.167 267.715,98.709 268.100 C 98.252 268.485,97.733 268.800,97.557 268.800 C 97.381 268.800,96.809 269.205,96.286 269.700 C 95.763 270.195,94.740 271.050,94.013 271.600 C 93.286 272.150,92.107 273.095,91.393 273.700 C 90.679 274.305,89.803 274.800,89.447 274.800 C 89.091 274.800,88.800 275.058,88.800 275.373 C 88.800 275.688,88.469 276.051,88.065 276.179 C 87.661 276.308,86.728 276.950,85.993 277.606 C 85.258 278.263,84.451 278.800,84.200 278.800 C 83.949 278.800,83.353 279.250,82.875 279.800 C 82.397 280.350,81.777 280.800,81.499 280.800 C 81.220 280.800,80.768 281.160,80.493 281.600 C 80.218 282.040,79.770 282.407,79.497 282.416 C 79.223 282.425,78.377 282.965,77.615 283.616 C 76.853 284.267,76.019 284.800,75.761 284.800 C 75.503 284.800,74.997 285.250,74.637 285.800 C 74.276 286.350,73.710 286.800,73.378 286.800 C 73.046 286.800,72.674 287.063,72.550 287.385 C 72.427 287.706,72.012 288.069,71.628 288.191 C 71.244 288.313,70.328 288.950,69.593 289.606 C 68.858 290.263,68.039 290.800,67.774 290.800 C 67.509 290.800,66.997 291.250,66.637 291.800 C 66.276 292.350,65.776 292.800,65.524 292.800 C 65.273 292.800,64.782 293.080,64.434 293.423 C 61.135 296.666,55.396 300.093,54.200 299.534 C 53.729 299.315,53.915 299.622,54.651 300.280 C 55.339 300.896,57.040 302.840,58.431 304.600 C 67.990 316.691,82.985 330.274,96.814 339.366 C 99.117 340.880,101.640 342.542,102.422 343.059 C 103.203 343.577,103.986 344.000,104.160 344.000 C 104.334 344.000,104.959 344.344,105.550 344.764 C 106.993 345.792,119.452 352.015,123.200 353.580 C 124.850 354.269,126.785 355.093,127.499 355.410 C 135.493 358.957,158.570 365.596,163.000 365.622 C 163.660 365.626,166.090 365.979,168.400 366.408 C 182.791 369.076,212.146 368.171,228.073 364.567 C 230.423 364.035,232.583 363.600,232.873 363.600 C 234.362 363.601,246.394 359.979,254.600 357.061 C 260.282 355.040,272.108 349.589,277.633 346.444 C 278.642 345.870,280.221 344.989,281.144 344.487 C 294.349 337.294,310.481 323.891,322.366 310.239 C 331.095 300.212,341.215 284.815,345.922 274.400 C 346.568 272.970,347.636 270.630,348.294 269.200 C 348.952 267.770,349.629 266.150,349.799 265.600 C 349.969 265.050,350.354 264.245,350.654 263.811 C 350.954 263.377,351.202 262.657,351.204 262.211 C 351.206 261.765,351.656 260.437,352.204 259.260 C 352.752 258.083,353.200 256.793,353.200 256.393 C 353.200 255.994,353.587 254.796,354.060 253.733 C 354.532 252.670,355.148 250.540,355.427 249.000 C 355.706 247.460,356.198 245.480,356.520 244.600 C 357.467 242.010,357.919 233.629,357.286 230.400 C 356.849 228.171,347.225 208.899,346.001 207.800 C 345.510 207.360,343.980 204.750,342.600 202.000 C 341.220 199.250,339.691 196.640,339.202 196.200 C 338.713 195.760,337.860 194.500,337.305 193.400 C 336.750 192.300,335.767 190.770,335.121 190.000 C 333.685 188.291,330.680 183.905,329.639 182.000 C 329.218 181.230,328.317 180.071,327.637 179.425 C 326.302 178.157,326.032 176.916,327.011 176.541 C 327.346 176.412,328.084 175.517,328.649 174.553 C 329.214 173.589,329.909 172.800,330.195 172.800 C 330.480 172.800,330.821 172.372,330.952 171.848 C 331.084 171.324,331.553 170.801,331.996 170.685 C 332.478 170.559,332.800 170.140,332.800 169.637 C 332.800 169.063,333.055 168.800,333.610 168.800 C 334.106 168.800,334.567 168.412,334.800 167.800 C 335.009 167.250,335.448 166.800,335.776 166.800 C 336.104 166.800,336.565 166.440,336.800 166.000 C 337.430 164.823,338.482 165.012,341.249 166.800 C 346.668 170.303,349.216 167.910,348.277 160.200 C 347.746 155.838,347.920 154.991,349.782 152.867 C 350.917 151.572,350.973 145.933,349.868 144.247 C 348.831 142.665,348.662 143.159,349.606 145.012 C 351.136 148.013,350.633 151.165,348.206 153.784 C 347.399 154.655,346.566 155.690,346.355 156.084 C 346.144 156.478,345.708 156.800,345.386 156.800 C 345.064 156.800,344.800 157.064,344.800 157.386 C 344.800 157.708,344.466 158.151,344.058 158.369 C 343.649 158.588,342.408 159.629,341.299 160.683 C 340.190 161.737,338.769 163.025,338.141 163.544 C 336.602 164.818,328.470 172.326,327.142 173.700 C 326.557 174.305,325.909 174.800,325.702 174.800 C 325.494 174.800,324.998 175.160,324.600 175.600 C 322.727 177.669,318.188 176.005,316.000 172.447 C 314.541 170.074,310.940 169.688,308.461 171.638 C 307.921 172.062,306.795 172.519,305.958 172.653 C 305.121 172.787,304.134 173.231,303.763 173.640 C 303.393 174.050,302.440 174.506,301.645 174.655 C 300.850 174.804,299.744 175.262,299.187 175.674 C 298.630 176.085,297.460 176.522,296.587 176.645 C 295.714 176.767,294.100 177.255,293.000 177.728 C 291.259 178.476,290.248 178.588,285.200 178.588 C 280.152 178.588,279.141 178.476,277.400 177.728 C 276.300 177.255,274.699 176.770,273.843 176.650 C 272.986 176.530,271.906 176.084,271.443 175.659 C 270.979 175.234,270.006 174.761,269.281 174.607 C 268.555 174.454,267.747 173.984,267.485 173.564 C 267.222 173.144,266.716 172.800,266.359 172.800 C 265.723 172.800,263.496 171.292,261.686 169.636 C 261.183 169.176,260.611 168.800,260.415 168.800 C 260.219 168.800,259.704 168.350,259.271 167.800 C 258.839 167.250,258.362 166.800,258.211 166.800 C 257.918 166.800,256.101 164.950,253.200 161.698 C 251.192 159.447,250.940 159.128,247.580 154.600 C 246.274 152.840,244.924 151.040,244.580 150.600 C 244.236 150.160,242.886 148.360,241.581 146.600 C 240.275 144.840,238.837 142.950,238.384 142.400 C 237.017 140.740,235.049 138.210,234.200 137.023 C 233.760 136.407,232.677 134.980,231.793 133.852 C 230.910 132.723,229.393 130.753,228.423 129.473 C 227.454 128.192,225.882 126.460,224.930 125.622 C 223.979 124.784,223.200 123.892,223.200 123.640 C 223.200 123.387,222.750 123.009,222.200 122.800 C 221.588 122.567,221.200 122.106,221.200 121.610 C 221.200 121.063,220.937 120.800,220.390 120.800 C 219.894 120.800,219.433 120.412,219.200 119.800 C 218.991 119.250,218.566 118.800,218.256 118.800 C 217.946 118.800,217.397 118.350,217.037 117.800 C 216.676 117.250,216.178 116.800,215.929 116.800 C 215.679 116.800,214.919 116.385,214.238 115.877 C 211.883 114.122,210.065 113.997,187.669 114.048 C 174.540 114.078,165.922 114.254,164.800 114.516 M119.200 135.449 C 119.200 135.980,119.091 136.008,118.600 135.600 C 118.270 135.326,118.000 135.034,118.000 134.951 C 118.000 134.868,118.270 134.800,118.600 134.800 C 118.930 134.800,119.200 135.092,119.200 135.449 M282.624 139.413 C 281.672 140.133,281.278 140.131,280.000 139.400 C 279.042 138.852,279.093 138.828,281.200 138.827 C 283.220 138.826,283.337 138.873,282.624 139.413 M290.000 141.171 C 290.000 142.194,291.351 142.800,293.629 142.800 C 294.933 142.800,296.000 142.975,296.000 143.190 C 296.000 143.842,298.271 144.800,299.818 144.800 C 300.909 144.800,301.324 144.989,301.472 145.554 C 301.581 145.969,302.059 146.497,302.535 146.727 C 303.319 147.107,303.328 147.148,302.638 147.173 C 302.219 147.188,301.286 147.650,300.564 148.200 C 298.808 149.540,297.418 149.480,295.938 148.000 C 295.278 147.340,294.573 146.800,294.370 146.800 C 294.168 146.800,293.309 146.174,292.462 145.408 C 291.615 144.643,289.634 143.380,288.061 142.603 C 284.591 140.888,284.568 140.800,287.600 140.800 C 288.920 140.800,290.000 140.967,290.000 141.171 " stroke="none" fill="#094d8f" fill-rule="evenodd"></path><path id="path2" d="M177.334 29.873 C 175.837 29.972,174.678 30.265,174.385 30.618 C 174.112 30.946,173.218 31.200,172.332 31.200 C 171.176 31.200,170.520 31.461,169.846 32.188 C 168.968 33.136,168.701 33.181,163.365 33.288 C 158.029 33.395,157.784 33.437,157.405 34.300 C 157.034 35.145,156.771 35.200,153.105 35.200 C 149.206 35.200,149.200 35.202,149.200 36.200 L 149.200 37.200 145.200 37.200 L 141.200 37.200 141.200 38.200 C 141.200 39.178,141.133 39.200,138.200 39.200 C 135.267 39.200,135.200 39.222,135.200 40.200 C 135.200 41.178,135.133 41.200,132.200 41.200 C 129.267 41.200,129.200 41.222,129.200 42.200 C 129.200 43.178,129.133 43.200,126.200 43.200 C 123.267 43.200,123.200 43.222,123.200 44.200 C 123.200 45.135,123.068 45.200,121.182 45.200 C 119.575 45.200,118.964 45.399,118.187 46.177 C 117.522 46.842,116.666 47.193,115.505 47.277 C 114.199 47.371,113.709 47.606,113.413 48.282 C 113.110 48.973,112.634 49.189,111.213 49.282 C 109.695 49.381,109.380 49.543,109.275 50.278 C 109.173 50.999,108.849 51.178,107.475 51.278 C 106.188 51.372,105.709 51.608,105.405 52.300 C 105.160 52.859,104.661 53.200,104.087 53.200 C 103.579 53.200,102.714 53.650,102.164 54.200 C 101.614 54.750,100.882 55.200,100.537 55.200 C 99.945 55.200,98.382 56.305,96.192 58.271 C 95.659 58.750,94.812 59.200,94.311 59.271 C 93.722 59.354,93.355 59.718,93.272 60.300 C 93.180 60.951,92.876 61.200,92.172 61.200 C 91.402 61.200,91.200 61.408,91.200 62.200 C 91.200 63.048,91.015 63.200,89.981 63.200 C 89.194 63.200,88.433 63.555,87.835 64.200 C 87.325 64.750,86.524 65.200,86.054 65.200 C 85.410 65.200,85.200 65.446,85.200 66.200 C 85.200 67.000,85.000 67.200,84.200 67.200 C 83.400 67.200,83.200 67.400,83.200 68.200 C 83.200 68.950,82.989 69.200,82.358 69.200 C 81.894 69.200,81.170 69.639,80.748 70.175 C 80.280 70.770,79.477 71.199,78.690 71.275 C 77.704 71.371,77.370 71.612,77.272 72.300 C 77.180 72.951,76.876 73.200,76.172 73.200 C 75.402 73.200,75.200 73.408,75.200 74.200 C 75.200 75.000,75.000 75.200,74.200 75.200 C 73.400 75.200,73.200 75.400,73.200 76.200 C 73.200 77.000,73.000 77.200,72.200 77.200 C 71.400 77.200,71.200 77.400,71.200 78.200 C 71.200 78.923,70.985 79.200,70.425 79.200 C 69.603 79.200,68.673 79.948,65.310 83.310 C 61.948 86.673,61.200 87.603,61.200 88.425 C 61.200 88.985,60.923 89.200,60.200 89.200 C 59.408 89.200,59.200 89.402,59.200 90.172 C 59.200 90.876,58.951 91.180,58.300 91.272 C 57.532 91.381,57.382 91.679,57.278 93.300 C 57.168 95.015,57.061 95.200,56.178 95.200 C 55.401 95.200,55.200 95.406,55.200 96.200 C 55.200 97.000,55.000 97.200,54.200 97.200 C 53.400 97.200,53.200 97.400,53.200 98.200 C 53.200 99.000,53.000 99.200,52.200 99.200 C 51.446 99.200,51.200 99.410,51.200 100.054 C 51.200 100.524,50.750 101.325,50.200 101.835 C 49.555 102.433,49.200 103.194,49.200 103.981 C 49.200 105.015,49.048 105.200,48.200 105.200 C 47.428 105.200,47.200 105.406,47.200 106.105 C 47.200 106.659,46.852 107.163,46.302 107.405 C 45.809 107.622,45.344 108.121,45.270 108.514 C 45.196 108.906,44.745 109.663,44.268 110.195 C 42.074 112.640,41.200 113.987,41.200 114.926 C 41.200 115.533,40.798 116.258,40.200 116.729 C 39.650 117.161,39.200 117.894,39.200 118.358 C 39.200 118.821,39.033 119.200,38.829 119.200 C 38.022 119.200,37.200 120.527,37.200 121.829 C 37.200 122.583,37.033 123.200,36.829 123.200 C 36.055 123.200,35.200 124.504,35.200 125.683 C 35.200 126.476,34.847 127.235,34.200 127.835 C 33.561 128.427,33.200 129.196,33.200 129.963 C 33.200 130.710,32.823 131.541,32.200 132.164 C 31.411 132.953,31.200 133.569,31.200 135.087 C 31.200 136.698,31.054 137.074,30.300 137.405 C 29.559 137.730,29.379 138.169,29.280 139.887 C 29.184 141.541,28.956 142.134,28.180 142.745 C 27.306 143.432,27.200 143.820,27.200 146.330 C 27.200 148.944,27.136 149.153,26.300 149.272 C 25.508 149.385,25.386 149.665,25.283 151.616 C 25.179 153.577,24.994 153.998,23.672 155.281 C 22.304 156.609,22.133 157.026,21.638 160.250 C 21.314 162.368,20.793 164.182,20.333 164.806 C 19.819 165.501,19.485 166.822,19.319 168.821 C 19.159 170.737,18.812 172.157,18.345 172.800 C 17.779 173.580,17.562 174.901,17.357 178.800 C 17.204 181.721,16.894 184.050,16.612 184.400 C 14.581 186.922,14.585 227.099,16.616 229.600 C 16.913 229.966,17.179 232.124,17.296 235.126 C 17.456 239.249,17.619 240.230,18.296 241.145 C 18.895 241.955,19.144 243.030,19.259 245.294 C 19.380 247.705,19.591 248.545,20.258 249.275 C 20.905 249.982,21.150 250.891,21.301 253.133 C 21.439 255.192,21.733 256.384,22.289 257.135 C 22.737 257.741,23.167 259.119,23.282 260.315 C 23.410 261.645,23.783 262.754,24.290 263.313 C 24.750 263.820,25.204 265.056,25.350 266.200 C 25.491 267.300,25.965 268.688,26.403 269.284 C 26.841 269.880,27.200 270.721,27.200 271.153 C 27.200 271.585,27.650 272.473,28.200 273.127 C 28.804 273.844,29.200 274.815,29.200 275.576 C 29.200 276.367,29.551 277.188,30.144 277.780 C 30.763 278.399,31.160 279.364,31.297 280.587 C 31.417 281.651,31.852 282.825,32.310 283.325 C 32.752 283.806,33.233 284.766,33.379 285.459 C 33.526 286.151,33.977 287.017,34.383 287.385 C 34.789 287.752,35.232 288.645,35.368 289.368 C 35.522 290.190,36.287 291.345,37.404 292.442 C 38.430 293.450,39.195 294.571,39.197 295.069 C 39.199 295.547,39.623 296.447,40.139 297.069 C 40.656 297.691,41.210 298.738,41.370 299.394 C 41.531 300.051,42.549 301.526,43.631 302.671 C 44.714 303.815,45.600 305.099,45.600 305.522 C 45.600 306.615,47.007 308.265,48.194 308.563 C 48.747 308.702,49.200 309.102,49.200 309.453 C 49.200 310.057,50.309 311.626,52.296 313.833 C 52.789 314.380,53.300 315.259,53.432 315.786 C 53.743 317.025,76.807 340.069,78.200 340.533 C 79.295 340.898,79.555 341.099,83.188 344.392 C 84.392 345.483,85.877 346.485,86.488 346.619 C 87.100 346.754,87.600 347.027,87.600 347.227 C 87.600 347.580,89.795 349.185,91.941 350.400 C 92.524 350.731,93.406 351.406,93.900 351.900 C 94.395 352.395,95.042 352.800,95.338 352.800 C 95.634 352.800,96.199 353.156,96.593 353.592 C 96.987 354.028,97.900 354.495,98.621 354.630 C 99.342 354.766,100.339 355.309,100.836 355.838 C 101.333 356.367,102.060 356.800,102.452 356.800 C 102.843 356.800,103.614 357.250,104.164 357.800 C 104.714 358.350,105.615 358.800,106.168 358.800 C 106.751 358.800,107.345 359.124,107.586 359.573 C 107.813 359.998,108.404 360.469,108.900 360.619 C 109.395 360.769,110.194 361.252,110.675 361.692 C 111.173 362.147,112.354 362.583,113.413 362.703 C 114.636 362.840,115.601 363.237,116.220 363.856 C 116.739 364.375,117.638 364.800,118.218 364.800 C 118.797 364.800,119.571 365.165,119.936 365.612 C 120.302 366.060,121.318 366.536,122.200 366.673 C 123.080 366.810,124.218 367.246,124.728 367.641 C 125.239 368.036,126.491 368.485,127.511 368.638 C 128.572 368.797,129.630 369.239,129.983 369.670 C 130.322 370.085,131.320 370.539,132.200 370.678 C 133.080 370.818,134.259 371.270,134.821 371.683 C 135.502 372.184,136.832 372.511,138.821 372.668 C 141.015 372.841,142.034 373.116,142.687 373.709 C 143.253 374.223,144.339 374.584,145.687 374.707 C 146.849 374.812,148.070 375.124,148.400 375.400 C 149.025 375.923,150.417 376.247,153.800 376.656 C 154.900 376.789,156.070 377.117,156.400 377.385 C 157.119 377.968,162.540 378.806,165.569 378.803 C 166.807 378.801,168.008 379.030,168.369 379.337 C 170.648 381.275,217.423 381.290,219.631 379.354 C 219.979 379.049,221.059 378.786,222.031 378.768 C 224.509 378.724,228.971 377.889,229.640 377.344 C 229.948 377.094,232.045 376.759,234.301 376.601 C 237.284 376.392,238.647 376.121,239.301 375.607 C 239.795 375.219,241.142 374.772,242.292 374.614 C 243.443 374.456,244.793 374.009,245.292 373.620 C 245.792 373.231,247.151 372.823,248.313 372.714 C 249.658 372.587,250.748 372.221,251.313 371.705 C 251.882 371.186,252.957 370.827,254.313 370.705 C 255.729 370.578,256.727 370.232,257.339 369.657 C 257.841 369.186,258.631 368.800,259.095 368.800 C 259.559 368.800,260.473 368.350,261.127 367.800 C 261.844 367.196,262.815 366.800,263.576 366.800 C 264.367 366.800,265.188 366.449,265.780 365.856 C 266.399 365.237,267.364 364.840,268.587 364.703 C 269.635 364.584,270.832 364.146,271.325 363.699 C 271.806 363.262,272.740 362.778,273.400 362.623 C 274.060 362.468,274.960 362.018,275.400 361.623 C 275.840 361.228,276.740 360.778,277.400 360.623 C 278.060 360.468,278.960 360.018,279.400 359.623 C 279.840 359.228,280.725 358.780,281.366 358.628 C 282.528 358.352,283.977 357.406,285.849 355.700 C 286.392 355.205,287.084 354.800,287.387 354.800 C 287.691 354.800,288.447 354.375,289.069 353.855 C 289.691 353.335,290.605 352.783,291.100 352.628 C 291.596 352.473,292.187 351.998,292.414 351.573 C 292.642 351.148,293.154 350.800,293.552 350.800 C 293.950 350.800,294.615 350.425,295.030 349.967 C 295.445 349.509,296.372 348.888,297.092 348.587 C 297.811 348.287,298.400 347.854,298.400 347.626 C 298.400 347.398,298.985 346.957,299.700 346.646 C 300.415 346.336,301.849 345.299,302.888 344.341 C 303.926 343.384,305.340 342.150,306.029 341.600 C 306.719 341.050,308.147 339.745,309.202 338.700 C 310.257 337.655,311.379 336.800,311.695 336.800 C 312.527 336.800,326.800 322.401,326.800 321.561 C 326.800 321.172,327.160 320.740,327.600 320.600 C 328.040 320.460,328.400 320.184,328.400 319.987 C 328.400 319.789,328.948 319.036,329.617 318.314 C 334.723 312.801,336.800 310.211,336.800 309.359 C 336.800 309.067,337.176 308.417,337.636 307.914 C 339.180 306.227,340.800 303.895,340.800 303.359 C 340.800 303.067,341.176 302.417,341.636 301.914 C 343.371 300.019,344.800 297.864,344.800 297.145 C 344.800 296.735,344.970 296.400,345.179 296.400 C 345.902 296.400,348.364 292.163,348.639 290.447 C 348.797 289.455,349.316 288.321,349.857 287.779 C 350.376 287.261,350.800 286.386,350.800 285.836 C 350.800 285.286,351.250 284.386,351.800 283.836 C 352.429 283.208,352.800 282.384,352.800 281.618 C 352.800 280.948,352.970 280.400,353.179 280.400 C 354.006 280.400,356.402 276.095,356.652 274.159 C 356.791 273.082,357.228 271.840,357.623 271.400 C 358.018 270.960,358.474 270.060,358.636 269.400 C 358.799 268.740,359.246 267.750,359.630 267.200 C 360.014 266.650,360.451 265.307,360.601 264.216 C 360.751 263.125,361.201 261.816,361.601 261.308 C 362.000 260.800,362.453 259.443,362.607 258.292 C 362.760 257.142,363.107 255.930,363.376 255.600 C 363.646 255.270,364.100 253.470,364.386 251.600 C 364.671 249.730,365.106 247.948,365.353 247.640 C 365.984 246.850,366.731 242.307,366.768 239.031 C 366.788 237.342,367.009 236.017,367.336 235.631 C 368.152 234.669,368.806 229.195,368.803 223.349 C 368.801 219.167,368.922 217.997,369.400 217.600 C 370.293 216.859,370.293 199.141,369.400 198.400 C 368.624 197.756,368.630 196.239,369.410 195.592 C 369.957 195.138,369.957 195.015,369.410 194.411 C 369.020 193.980,368.801 192.954,368.803 191.569 C 368.806 188.505,367.965 183.112,367.372 182.400 C 367.068 182.035,366.819 180.205,366.736 177.731 C 366.617 174.169,366.488 173.544,365.700 172.706 C 364.896 171.850,364.800 171.341,364.800 167.905 C 364.800 164.389,364.715 163.960,363.800 162.873 C 362.941 161.852,362.800 161.288,362.800 158.873 C 362.800 156.458,362.659 155.894,361.800 154.873 C 360.992 153.912,360.800 153.252,360.800 151.424 C 360.800 149.573,360.627 148.990,359.842 148.206 C 359.252 147.615,358.799 146.587,358.661 145.524 C 358.538 144.576,358.321 143.138,358.178 142.328 C 357.925 140.891,357.950 140.854,359.260 140.728 C 360.297 140.629,360.629 140.396,360.728 139.700 C 360.926 138.304,363.200 138.396,363.200 139.800 C 363.200 140.667,363.377 140.800,364.538 140.800 C 365.355 140.800,366.150 141.103,366.579 141.577 C 366.966 142.005,367.849 142.474,368.541 142.621 C 369.234 142.767,370.219 143.272,370.731 143.743 C 371.523 144.472,372.246 144.620,375.567 144.735 C 380.401 144.903,380.800 144.634,380.800 141.199 C 380.800 139.073,380.884 138.844,381.700 138.728 C 382.876 138.561,383.265 134.822,382.198 133.934 C 381.845 133.640,381.020 132.905,380.364 132.300 C 379.272 131.292,378.906 131.200,375.986 131.200 C 372.854 131.200,372.800 131.183,372.800 130.200 C 372.800 129.261,372.672 129.200,370.700 129.194 C 368.747 129.189,368.670 129.153,369.600 128.684 C 370.491 128.235,370.613 127.895,370.716 125.578 C 370.816 123.336,370.955 122.922,371.716 122.588 C 373.018 122.017,373.084 114.070,371.793 113.412 C 371.349 113.185,370.584 112.595,370.093 112.100 C 368.214 110.206,361.200 110.930,361.200 113.018 C 361.200 113.490,360.850 114.193,360.423 114.579 C 359.995 114.966,359.522 115.849,359.371 116.541 C 359.220 117.234,358.670 118.309,358.148 118.931 C 357.442 119.772,357.200 120.547,357.200 121.961 C 357.200 123.470,356.994 124.054,356.200 124.800 C 355.432 125.521,355.200 126.141,355.200 127.470 L 355.200 129.200 353.227 129.200 C 351.381 129.200,351.242 129.271,351.087 130.300 C 350.995 130.905,350.893 130.455,350.860 129.300 C 350.804 127.343,350.732 127.200,349.800 127.200 C 348.867 127.200,348.800 127.067,348.800 125.200 C 348.800 123.333,348.733 123.200,347.800 123.200 C 346.867 123.200,346.800 123.067,346.800 121.200 C 346.800 119.333,346.733 119.200,345.800 119.200 C 344.878 119.200,344.800 119.056,344.800 117.358 C 344.800 115.896,344.604 115.361,343.852 114.770 C 343.331 114.360,342.799 113.493,342.669 112.844 C 342.528 112.140,342.104 111.560,341.616 111.405 C 341.035 111.221,340.800 110.803,340.800 109.954 C 340.800 109.212,340.440 108.429,339.848 107.880 C 339.325 107.395,338.828 106.638,338.744 106.199 C 338.656 105.738,338.213 105.346,337.696 105.272 C 337.044 105.179,336.800 104.875,336.800 104.154 C 336.800 103.609,336.364 102.728,335.832 102.196 C 335.300 101.663,334.804 100.906,334.730 100.514 C 334.656 100.121,334.199 99.625,333.714 99.412 C 333.229 99.199,332.780 98.659,332.716 98.212 C 332.646 97.721,332.244 97.349,331.700 97.272 C 331.049 97.180,330.800 96.876,330.800 96.172 C 330.800 95.402,330.592 95.200,329.800 95.200 C 329.000 95.200,328.800 95.000,328.800 94.200 C 328.800 93.400,328.600 93.200,327.800 93.200 C 327.000 93.200,326.800 93.000,326.800 92.200 C 326.800 91.400,326.600 91.200,325.800 91.200 C 325.028 91.200,324.800 90.994,324.800 90.296 C 324.800 89.799,324.442 89.169,324.005 88.896 C 323.568 88.623,322.947 87.770,322.626 87.000 C 322.304 86.230,321.847 85.600,321.611 85.600 C 321.374 85.600,321.002 85.133,320.785 84.561 C 320.568 83.990,320.043 83.432,319.618 83.321 C 319.193 83.209,318.790 82.732,318.722 82.259 C 318.647 81.730,318.264 81.352,317.725 81.275 C 317.179 81.198,316.802 80.821,316.725 80.275 C 316.647 79.730,316.270 79.353,315.725 79.275 C 315.179 79.198,314.802 78.821,314.725 78.275 C 314.647 77.730,314.270 77.353,313.725 77.275 C 313.179 77.198,312.802 76.821,312.725 76.275 C 312.650 75.755,312.271 75.353,311.788 75.284 C 311.341 75.220,310.801 74.771,310.588 74.286 C 310.375 73.801,309.879 73.344,309.486 73.270 C 309.094 73.196,308.337 72.700,307.804 72.168 C 307.272 71.636,306.378 71.200,305.818 71.200 C 304.999 71.200,304.800 71.005,304.800 70.200 C 304.800 69.408,304.598 69.200,303.828 69.200 C 303.124 69.200,302.820 68.951,302.728 68.300 C 302.622 67.554,302.313 67.379,300.925 67.278 C 299.551 67.178,299.227 66.999,299.125 66.278 C 299.048 65.735,298.671 65.353,298.138 65.277 C 297.613 65.202,297.179 64.772,297.030 64.177 C 296.855 63.479,296.509 63.200,295.819 63.200 C 295.206 63.200,294.762 62.909,294.600 62.401 C 294.461 61.961,293.864 61.482,293.273 61.335 C 292.683 61.188,291.309 60.197,290.221 59.134 C 289.133 58.070,287.930 57.200,287.548 57.200 C 287.166 57.200,286.737 56.833,286.595 56.384 C 286.440 55.896,285.860 55.472,285.156 55.331 C 284.507 55.201,283.640 54.669,283.230 54.148 C 282.820 53.626,282.114 53.200,281.661 53.200 C 281.207 53.200,280.386 52.750,279.836 52.200 C 279.286 51.650,278.386 51.200,277.836 51.200 C 277.286 51.200,276.386 50.750,275.836 50.200 C 275.064 49.428,274.424 49.200,273.026 49.200 C 271.438 49.200,271.185 49.079,270.969 48.220 C 270.759 47.381,270.457 47.223,268.862 47.120 C 267.280 47.018,266.981 46.865,266.872 46.100 C 266.760 45.308,266.512 45.200,264.800 45.200 C 263.088 45.200,262.840 45.092,262.728 44.300 C 262.612 43.488,262.328 43.381,259.800 43.200 C 257.272 43.019,256.988 42.912,256.872 42.100 C 256.753 41.259,256.550 41.200,253.772 41.200 C 250.869 41.200,250.800 41.177,250.800 40.200 C 250.800 39.223,250.731 39.200,247.828 39.200 C 245.050 39.200,244.847 39.141,244.728 38.300 C 244.607 37.446,244.400 37.394,240.700 37.286 C 236.853 37.173,236.800 37.158,236.800 36.186 L 236.800 35.200 230.900 35.173 C 226.357 35.152,225.207 35.046,225.900 34.712 C 228.171 33.616,226.939 33.200,221.429 33.200 C 216.176 33.200,216.041 33.178,215.271 32.200 C 214.770 31.562,214.082 31.200,213.374 31.200 C 212.763 31.200,211.916 30.886,211.493 30.503 C 210.735 29.817,185.282 29.348,177.334 29.873 M236.000 36.400 C 236.376 37.102,236.304 37.200,235.414 37.200 C 234.311 37.200,234.284 37.167,234.643 36.233 C 234.972 35.374,235.485 35.437,236.000 36.400 M220.903 41.960 C 233.077 43.880,244.923 47.138,254.800 51.283 C 256.890 52.160,259.410 53.206,260.400 53.607 C 263.674 54.935,274.074 60.470,278.000 62.974 C 299.051 76.402,315.863 93.723,331.020 117.600 C 332.301 119.618,336.565 127.505,337.448 129.490 C 338.119 130.997,338.433 131.248,340.356 131.817 C 343.790 132.833,345.578 134.250,346.388 136.600 C 346.615 137.260,347.251 138.686,347.801 139.768 C 348.350 140.850,348.800 141.982,348.800 142.284 C 348.800 142.586,349.205 143.380,349.700 144.049 C 350.975 145.774,351.028 151.445,349.782 152.867 C 347.920 154.991,347.746 155.838,348.277 160.200 C 349.216 167.910,346.668 170.303,341.249 166.800 C 338.482 165.012,337.430 164.823,336.800 166.000 C 336.565 166.440,336.104 166.800,335.776 166.800 C 335.448 166.800,335.009 167.250,334.800 167.800 C 334.567 168.412,334.106 168.800,333.610 168.800 C 333.055 168.800,332.800 169.063,332.800 169.637 C 332.800 170.140,332.478 170.559,331.996 170.685 C 331.553 170.801,331.084 171.324,330.952 171.848 C 330.821 172.372,330.480 172.800,330.195 172.800 C 329.909 172.800,329.214 173.589,328.649 174.553 C 328.084 175.517,327.346 176.412,327.011 176.541 C 326.032 176.916,326.302 178.157,327.637 179.425 C 328.317 180.071,329.218 181.230,329.639 182.000 C 330.680 183.905,333.685 188.291,335.121 190.000 C 335.767 190.770,336.750 192.300,337.305 193.400 C 337.860 194.500,338.713 195.760,339.202 196.200 C 339.691 196.640,341.220 199.250,342.600 202.000 C 343.980 204.750,345.510 207.360,346.001 207.800 C 347.225 208.899,356.849 228.171,357.286 230.400 C 357.919 233.629,357.467 242.010,356.520 244.600 C 356.198 245.480,355.706 247.460,355.427 249.000 C 355.148 250.540,354.532 252.670,354.060 253.733 C 353.587 254.796,353.200 255.994,353.200 256.393 C 353.200 256.793,352.752 258.083,352.204 259.260 C 351.656 260.437,351.206 261.765,351.204 262.211 C 351.202 262.657,350.954 263.377,350.654 263.811 C 350.354 264.245,349.969 265.050,349.799 265.600 C 349.629 266.150,348.952 267.770,348.294 269.200 C 347.636 270.630,346.568 272.970,345.922 274.400 C 341.215 284.815,331.095 300.212,322.366 310.239 C 310.481 323.891,294.349 337.294,281.144 344.487 C 280.221 344.989,278.642 345.870,277.633 346.444 C 272.108 349.589,260.282 355.040,254.600 357.061 C 246.394 359.979,234.362 363.601,232.873 363.600 C 232.583 363.600,230.423 364.035,228.073 364.567 C 212.146 368.171,182.791 369.076,168.400 366.408 C 166.090 365.979,163.660 365.626,163.000 365.622 C 158.570 365.596,135.493 358.957,127.499 355.410 C 126.785 355.093,124.850 354.269,123.200 353.580 C 119.452 352.015,106.993 345.792,105.550 344.764 C 104.959 344.344,104.334 344.000,104.160 344.000 C 103.986 344.000,103.203 343.577,102.422 343.059 C 101.640 342.542,99.117 340.880,96.814 339.366 C 82.982 330.271,67.965 316.668,58.434 304.600 C 57.044 302.840,55.073 300.707,54.053 299.860 C 53.034 299.013,51.953 297.857,51.651 297.291 C 51.349 296.724,50.766 295.900,50.355 295.460 C 49.945 295.019,49.491 294.286,49.347 293.829 C 49.203 293.373,48.751 292.765,48.343 292.477 C 47.934 292.190,47.600 291.723,47.600 291.440 C 47.600 291.156,47.150 290.401,46.600 289.762 C 46.051 289.123,45.601 288.389,45.600 288.131 C 45.600 287.873,45.162 287.140,44.626 286.504 C 44.090 285.867,43.530 284.862,43.382 284.269 C 43.233 283.677,42.956 283.097,42.767 282.979 C 42.577 282.862,42.224 282.009,41.982 281.083 C 41.741 280.157,40.908 278.140,40.131 276.600 C 32.115 260.705,26.057 241.474,24.946 228.400 C 24.215 219.794,24.407 216.763,25.717 216.186 C 26.282 215.937,26.983 214.829,27.689 213.067 C 28.291 211.564,29.238 209.795,29.792 209.136 C 30.346 208.478,30.800 207.769,30.800 207.561 C 30.800 207.354,31.250 206.471,31.800 205.600 C 32.350 204.729,32.800 203.834,32.800 203.613 C 32.800 203.391,33.064 202.892,33.387 202.505 C 34.660 200.975,36.030 198.947,36.481 197.926 C 36.742 197.336,37.280 196.768,37.677 196.664 C 38.073 196.560,38.533 196.122,38.699 195.690 C 38.865 195.257,39.594 194.205,40.320 193.352 C 43.252 189.904,44.800 187.936,44.800 187.656 C 44.800 187.494,46.696 185.390,49.014 182.980 C 51.332 180.571,53.474 178.150,53.774 177.600 C 54.376 176.498,59.333 171.606,59.865 171.590 C 60.049 171.584,62.260 169.604,64.777 167.190 C 67.295 164.775,69.516 162.800,69.712 162.800 C 69.908 162.800,71.179 161.751,72.535 160.469 C 73.891 159.186,75.675 157.732,76.500 157.236 C 77.325 156.740,78.226 156.034,78.501 155.667 C 78.777 155.300,80.044 154.479,81.317 153.842 C 82.591 153.206,83.941 152.306,84.317 151.842 C 84.694 151.379,86.351 150.315,88.001 149.478 C 90.687 148.114,92.568 146.944,94.417 145.487 C 95.162 144.899,107.348 138.800,107.777 138.800 C 108.402 138.800,110.800 137.495,110.800 137.154 C 110.800 136.959,109.810 136.800,108.600 136.800 C 107.390 136.800,106.400 136.967,106.400 137.171 C 106.400 138.338,105.065 138.800,101.697 138.800 C 98.688 138.800,98.132 138.913,97.306 139.688 C 96.560 140.389,95.763 140.610,93.527 140.736 C 91.384 140.857,90.352 141.128,89.291 141.848 C 88.339 142.494,87.322 142.800,86.128 142.800 C 84.977 142.800,83.981 143.086,83.251 143.625 C 82.637 144.079,81.117 144.589,79.874 144.758 C 78.630 144.926,77.295 145.350,76.906 145.698 C 76.518 146.047,75.500 146.462,74.644 146.621 C 73.788 146.780,72.348 147.333,71.444 147.850 C 70.540 148.367,69.475 148.793,69.079 148.795 C 68.682 148.798,67.695 149.250,66.886 149.800 C 66.077 150.350,65.203 150.800,64.944 150.800 C 64.501 150.800,60.907 152.447,59.600 153.249 C 59.270 153.451,58.370 153.929,57.600 154.310 C 56.830 154.691,54.611 155.992,52.668 157.201 C 50.725 158.411,48.565 159.750,47.868 160.178 C 47.171 160.605,45.160 162.060,43.400 163.411 C 39.315 166.546,39.368 166.518,38.389 165.994 C 35.175 164.274,38.435 150.294,45.432 135.794 C 45.964 134.691,46.400 133.675,46.400 133.537 C 46.400 133.399,47.840 130.659,49.600 127.449 C 51.360 124.239,52.800 121.430,52.800 121.206 C 52.800 120.983,52.947 120.800,53.126 120.800 C 53.306 120.800,53.881 120.035,54.404 119.100 C 55.777 116.647,59.143 111.790,63.759 105.600 C 80.879 82.647,105.562 63.148,129.600 53.587 C 134.246 51.739,137.087 50.673,139.400 49.908 C 140.720 49.472,142.700 48.786,143.800 48.384 C 152.340 45.263,172.828 41.338,184.200 40.645 C 193.989 40.048,213.128 40.734,220.903 41.960 M118.000 134.951 C 118.000 135.034,118.270 135.326,118.600 135.600 C 119.091 136.008,119.200 135.980,119.200 135.449 C 119.200 135.092,118.930 134.800,118.600 134.800 C 118.270 134.800,118.000 134.868,118.000 134.951 M280.000 139.400 C 281.278 140.131,281.672 140.133,282.624 139.413 C 283.337 138.873,283.220 138.826,281.200 138.827 C 279.093 138.828,279.042 138.852,280.000 139.400 M285.200 140.995 C 285.200 141.102,286.487 141.825,288.061 142.603 C 289.634 143.380,291.615 144.643,292.462 145.408 C 293.309 146.174,294.168 146.800,294.370 146.800 C 294.573 146.800,295.278 147.340,295.938 148.000 C 297.418 149.480,298.808 149.540,300.564 148.200 C 301.286 147.650,302.219 147.188,302.638 147.173 C 303.328 147.148,303.319 147.107,302.535 146.727 C 302.059 146.497,301.581 145.969,301.472 145.554 C 301.324 144.989,300.909 144.800,299.818 144.800 C 298.271 144.800,296.000 143.842,296.000 143.190 C 296.000 142.975,294.933 142.800,293.629 142.800 C 291.351 142.800,290.000 142.194,290.000 141.171 C 290.000 140.967,288.920 140.800,287.600 140.800 C 286.280 140.800,285.200 140.888,285.200 140.995 " stroke="none" fill="#04152d" fill-rule="evenodd"></path><path id="path3" d="M183.400 41.230 C 176.494 42.028,166.910 43.278,165.200 43.604 C 154.754 45.598,143.995 48.592,135.697 51.815 C 134.321 52.350,131.981 53.257,130.497 53.831 C 129.014 54.406,127.427 55.112,126.971 55.400 C 126.515 55.689,125.390 56.151,124.471 56.426 C 123.552 56.701,122.800 57.060,122.800 57.223 C 122.800 57.386,121.900 57.843,120.800 58.239 C 119.700 58.634,118.800 59.080,118.800 59.230 C 118.800 59.379,117.945 59.894,116.900 60.375 C 115.855 60.855,114.010 61.863,112.800 62.616 C 111.590 63.368,110.150 64.214,109.600 64.495 C 108.515 65.049,105.125 67.253,104.800 67.616 C 104.690 67.739,103.093 68.893,101.251 70.181 C 93.143 75.853,80.343 87.343,76.000 92.848 C 75.450 93.545,74.550 94.591,74.000 95.173 C 72.893 96.345,71.992 97.543,70.748 99.500 C 70.293 100.215,69.669 100.800,69.360 100.800 C 69.052 100.800,68.800 101.122,68.800 101.515 C 68.800 101.908,68.267 102.853,67.616 103.615 C 66.965 104.377,66.425 105.332,66.416 105.737 C 66.407 106.143,66.040 106.569,65.600 106.684 C 64.973 106.848,64.800 107.230,64.800 108.447 L 64.800 110.000 71.111 110.000 C 75.760 110.000,77.630 110.142,78.211 110.541 C 78.817 110.956,82.347 111.152,93.400 111.382 C 106.972 111.665,117.915 112.098,124.851 112.627 L 127.902 112.860 127.546 114.441 C 127.351 115.311,126.743 116.951,126.195 118.086 C 125.648 119.221,125.200 120.352,125.200 120.600 C 125.200 120.847,124.840 121.795,124.400 122.706 C 123.960 123.616,123.592 124.595,123.582 124.881 C 123.573 125.166,123.289 126.120,122.952 127.000 C 122.615 127.880,122.359 129.323,122.383 130.206 C 122.407 131.089,122.144 133.069,121.798 134.606 C 120.326 141.142,120.607 158.542,122.262 163.400 C 123.308 166.472,123.361 164.841,122.322 161.534 C 120.949 157.164,120.938 140.731,122.304 135.711 C 122.797 133.901,123.202 131.471,123.204 130.311 C 123.206 128.934,123.539 127.489,124.160 126.155 C 124.684 125.030,125.234 123.554,125.384 122.874 C 125.533 122.194,125.979 121.224,126.376 120.719 C 126.772 120.213,127.219 119.234,127.371 118.541 C 127.522 117.849,127.985 116.976,128.400 116.600 C 128.815 116.224,129.265 115.414,129.400 114.800 C 129.535 114.186,129.995 113.366,130.423 112.979 C 130.850 112.593,131.200 112.120,131.200 111.928 C 131.200 111.392,134.000 107.440,134.635 107.080 C 134.946 106.904,135.200 106.542,135.200 106.275 C 135.200 105.435,141.251 99.173,145.000 96.134 C 146.980 94.528,148.922 92.935,149.316 92.592 C 149.709 92.249,150.519 91.758,151.116 91.500 C 151.712 91.242,152.709 90.619,153.331 90.116 C 153.953 89.612,154.737 89.200,155.073 89.200 C 155.409 89.200,156.219 88.750,156.873 88.200 C 157.527 87.650,158.427 87.200,158.873 87.200 C 159.319 87.200,160.219 86.750,160.873 86.200 C 161.556 85.626,162.566 85.200,163.247 85.200 C 163.899 85.200,164.926 84.835,165.528 84.390 C 166.131 83.944,167.519 83.424,168.612 83.234 C 169.705 83.043,171.860 82.522,173.400 82.076 C 182.363 79.478,194.734 79.544,203.859 82.238 C 205.651 82.767,207.469 83.200,207.899 83.200 C 208.329 83.200,209.527 83.650,210.562 84.200 C 211.596 84.750,212.821 85.200,213.283 85.200 C 213.746 85.200,214.714 85.650,215.436 86.200 C 216.157 86.750,217.074 87.201,217.473 87.201 C 217.873 87.202,218.830 87.596,219.600 88.075 C 221.464 89.237,223.904 90.603,225.500 91.379 C 226.215 91.726,226.800 92.278,226.800 92.605 C 226.800 92.932,227.030 93.200,227.311 93.200 C 228.719 93.200,240.800 104.471,240.800 105.785 C 240.800 106.044,241.250 106.647,241.800 107.125 C 242.350 107.603,242.800 108.168,242.800 108.379 C 242.800 108.591,243.205 109.213,243.700 109.763 C 245.405 111.656,246.800 113.511,246.800 113.885 C 246.800 114.092,247.250 114.683,247.800 115.200 C 248.350 115.717,248.800 116.280,248.800 116.452 C 248.800 116.623,249.205 117.213,249.700 117.763 C 251.213 119.443,252.800 121.495,252.800 121.772 C 252.800 121.917,253.655 123.077,254.700 124.351 C 258.141 128.546,258.449 128.979,259.611 131.250 C 260.637 133.258,262.633 136.040,269.322 144.791 C 275.242 152.535,281.954 155.697,289.865 154.467 C 291.550 154.205,293.136 153.819,293.389 153.609 C 293.848 153.228,298.387 151.272,301.394 150.159 C 304.941 148.846,305.824 147.004,304.374 143.944 C 303.717 142.557,303.599 142.446,303.798 143.400 C 303.936 144.060,304.147 145.085,304.267 145.679 C 304.547 147.067,303.143 149.107,301.673 149.445 C 300.605 149.691,298.488 150.602,294.100 152.700 C 291.209 154.082,282.404 154.357,280.200 153.134 C 279.540 152.767,278.280 152.116,277.400 151.687 C 275.433 150.728,271.253 146.653,268.681 143.186 C 267.625 141.764,265.822 139.340,264.675 137.800 C 262.120 134.371,261.221 133.012,260.308 131.200 C 259.920 130.430,259.287 129.332,258.901 128.760 C 258.516 128.187,257.848 127.197,257.418 126.560 C 256.987 125.922,256.132 124.809,255.518 124.086 C 254.903 123.363,254.400 122.515,254.400 122.200 C 254.400 121.886,254.040 121.435,253.600 121.200 C 253.160 120.965,252.800 120.444,252.800 120.044 C 252.800 119.644,252.374 118.857,251.852 118.294 C 251.331 117.732,250.788 116.806,250.645 116.236 C 250.502 115.666,250.118 115.200,249.792 115.200 C 249.313 115.200,248.871 113.363,249.300 113.150 C 249.355 113.123,253.180 112.942,257.800 112.749 C 262.420 112.555,269.170 112.230,272.800 112.027 C 276.430 111.823,285.070 111.538,292.000 111.393 C 301.532 111.194,304.907 110.993,305.860 110.565 C 306.792 110.147,308.957 110.000,314.160 110.000 C 319.502 110.000,321.211 109.879,321.244 109.500 C 321.352 108.287,321.088 106.953,320.630 106.400 C 320.357 106.070,319.825 105.125,319.448 104.300 C 319.071 103.475,318.586 102.800,318.371 102.800 C 318.156 102.800,317.807 102.345,317.596 101.789 C 317.385 101.234,317.027 100.559,316.802 100.289 C 315.487 98.717,313.200 95.652,313.200 95.461 C 313.200 95.337,312.795 94.813,312.300 94.296 C 311.805 93.779,309.750 91.476,307.734 89.178 C 302.132 82.793,293.759 75.167,285.800 69.199 C 284.480 68.210,283.340 67.265,283.267 67.100 C 283.193 66.935,282.989 66.800,282.812 66.800 C 282.636 66.800,281.374 66.035,280.008 65.100 C 278.643 64.165,277.227 63.225,276.863 63.012 C 276.498 62.798,275.480 62.174,274.600 61.625 C 270.524 59.080,260.264 53.980,255.200 51.982 C 242.169 46.838,232.323 44.203,218.464 42.149 C 210.669 40.994,190.108 40.455,183.400 41.230 M210.358 43.676 C 211.943 44.444,213.009 44.575,218.918 44.728 C 225.370 44.896,225.710 44.946,226.616 45.852 C 227.481 46.717,227.898 46.800,231.392 46.800 C 235.107 46.800,235.231 46.829,235.600 47.800 C 235.959 48.744,236.148 48.800,238.990 48.800 C 241.934 48.800,242.000 48.822,242.000 49.800 C 242.000 50.771,242.080 50.800,244.800 50.800 C 246.971 50.800,247.600 50.929,247.600 51.376 C 247.600 52.317,246.831 52.512,245.796 51.834 C 244.379 50.906,147.451 50.885,146.224 51.813 C 145.013 52.729,142.800 52.591,142.800 51.600 C 142.800 50.871,143.067 50.800,145.800 50.800 C 148.721 50.800,148.800 50.774,148.800 49.815 C 148.800 48.848,148.866 48.828,152.500 48.715 C 155.948 48.608,156.208 48.541,156.323 47.734 C 156.440 46.912,156.683 46.861,161.060 46.734 C 165.276 46.612,165.735 46.523,166.400 45.700 C 167.095 44.841,167.395 44.800,172.948 44.800 C 179.410 44.800,184.539 44.196,185.239 43.353 C 186.122 42.290,208.077 42.572,210.358 43.676 M184.389 105.740 C 184.272 105.859,182.119 106.172,179.603 106.435 C 176.951 106.713,174.807 107.136,174.501 107.442 C 173.957 107.986,171.491 108.794,170.362 108.798 C 170.011 108.799,169.413 109.144,169.033 109.564 C 168.652 109.984,167.871 110.446,167.297 110.590 C 166.723 110.734,165.733 111.290,165.096 111.826 C 164.460 112.362,163.682 112.800,163.369 112.800 C 163.056 112.800,162.800 112.978,162.800 113.195 C 162.800 113.412,162.091 114.038,161.224 114.585 C 159.171 115.881,152.800 122.407,152.800 123.214 C 152.800 123.426,152.395 124.003,151.900 124.496 C 148.731 127.651,144.761 136.602,144.812 140.478 C 144.834 142.121,145.469 140.436,146.198 136.800 C 146.573 134.930,147.100 133.130,147.369 132.800 C 147.638 132.470,148.102 131.426,148.399 130.480 C 148.697 129.535,149.153 128.635,149.412 128.480 C 149.671 128.326,150.118 127.753,150.405 127.208 C 150.692 126.662,151.348 125.884,151.864 125.479 C 152.379 125.073,152.800 124.489,152.800 124.180 C 152.800 123.871,153.250 123.324,153.800 122.963 C 154.350 122.603,154.800 122.054,154.800 121.744 C 154.800 121.434,155.250 121.009,155.800 120.800 C 156.350 120.591,156.800 120.141,156.800 119.800 C 156.800 119.459,157.250 119.009,157.800 118.800 C 158.350 118.591,158.800 118.251,158.800 118.046 C 158.800 117.840,159.610 117.279,160.600 116.800 C 161.590 116.321,162.535 115.710,162.700 115.443 C 163.460 114.214,167.219 114.000,188.000 114.000 C 210.014 114.000,211.900 114.135,214.238 115.877 C 214.919 116.385,215.679 116.800,215.929 116.800 C 216.178 116.800,216.676 117.250,217.037 117.800 C 217.397 118.350,217.946 118.800,218.256 118.800 C 218.566 118.800,218.991 119.250,219.200 119.800 C 219.433 120.412,219.894 120.800,220.390 120.800 C 220.937 120.800,221.200 121.063,221.200 121.610 C 221.200 122.106,221.588 122.567,222.200 122.800 C 222.750 123.009,223.200 123.387,223.200 123.640 C 223.200 123.892,223.979 124.784,224.930 125.622 C 225.882 126.460,227.454 128.192,228.423 129.473 C 229.393 130.753,230.910 132.723,231.793 133.852 C 232.677 134.980,233.760 136.407,234.200 137.023 C 235.049 138.210,237.017 140.740,238.384 142.400 C 238.837 142.950,240.275 144.840,241.581 146.600 C 242.886 148.360,244.236 150.160,244.580 150.600 C 244.924 151.040,246.274 152.840,247.580 154.600 C 250.940 159.128,251.192 159.447,253.200 161.698 C 256.169 165.026,258.025 166.909,258.180 166.750 C 258.261 166.667,257.005 165.195,255.389 163.478 C 253.773 161.761,251.276 158.791,249.840 156.878 C 248.405 154.965,247.086 153.220,246.911 153.000 C 245.942 151.787,241.700 146.082,241.123 145.216 C 240.750 144.657,239.310 142.729,237.923 140.931 C 236.535 139.134,235.040 137.172,234.600 136.571 C 231.664 132.566,226.657 126.363,225.352 125.115 C 224.499 124.298,223.260 122.954,222.600 122.128 C 221.547 120.811,216.699 115.967,214.086 113.621 C 213.583 113.169,212.940 112.800,212.656 112.800 C 212.372 112.800,211.735 112.370,211.242 111.844 C 210.748 111.319,209.830 110.786,209.203 110.661 C 208.575 110.535,207.732 110.088,207.331 109.667 C 206.929 109.247,205.758 108.780,204.728 108.631 C 203.699 108.482,202.439 108.036,201.928 107.640 C 200.590 106.604,185.176 104.934,184.389 105.740 M325.200 132.597 C 323.330 132.907,319.010 133.363,315.600 133.611 C 306.291 134.286,303.613 135.702,303.368 140.077 C 303.302 141.245,303.333 141.750,303.436 141.200 C 303.883 138.819,304.055 138.396,305.064 137.196 C 306.519 135.468,307.116 135.300,314.312 134.592 C 317.770 134.252,323.390 133.694,326.800 133.352 C 337.964 132.232,342.676 132.925,344.560 135.962 C 345.633 137.690,349.085 145.405,349.619 147.268 C 350.589 150.648,346.737 155.859,338.200 162.717 C 336.660 163.954,334.943 165.424,334.384 165.983 C 323.090 177.292,320.996 178.039,316.627 172.316 C 314.859 170.002,313.419 169.450,311.107 170.202 L 309.400 170.757 310.900 170.534 C 313.541 170.141,314.894 170.649,316.000 172.447 C 318.188 176.005,322.727 177.669,324.600 175.600 C 324.998 175.160,325.494 174.800,325.702 174.800 C 325.909 174.800,326.557 174.305,327.142 173.700 C 328.470 172.326,336.602 164.818,338.141 163.544 C 338.769 163.025,340.190 161.737,341.299 160.683 C 342.408 159.629,343.649 158.588,344.058 158.369 C 344.466 158.151,344.800 157.708,344.800 157.386 C 344.800 157.064,345.064 156.800,345.386 156.800 C 345.708 156.800,346.144 156.478,346.355 156.084 C 346.566 155.690,347.399 154.655,348.206 153.784 C 350.664 151.132,351.108 148.187,349.557 144.826 C 347.916 141.273,346.874 138.979,346.091 137.200 C 345.109 134.967,343.998 133.787,342.083 132.943 C 340.023 132.034,329.848 131.826,325.200 132.597 M144.251 144.700 C 144.123 146.405,144.170 148.970,144.355 150.400 C 144.650 152.690,144.697 152.320,144.745 147.300 C 144.806 140.996,144.607 139.949,144.251 144.700 M144.812 153.981 C 144.795 154.783,146.495 161.639,146.667 161.466 C 146.886 161.248,145.576 154.682,145.179 154.005 C 144.879 153.494,144.822 153.490,144.812 153.981 M146.802 162.011 C 146.803 162.115,147.249 163.280,147.792 164.600 C 148.810 167.071,149.158 167.173,148.337 164.760 C 147.925 163.547,146.797 161.528,146.802 162.011 M123.378 167.280 C 123.553 168.847,124.767 171.766,125.105 171.429 C 125.215 171.319,124.980 170.547,124.584 169.714 C 124.187 168.881,123.717 167.660,123.538 167.000 C 123.240 165.898,123.227 165.921,123.378 167.280 M258.800 167.096 C 258.800 167.558,260.336 168.997,260.575 168.758 C 260.669 168.665,260.307 168.167,259.773 167.652 C 259.238 167.137,258.800 166.887,258.800 167.096 M148.813 167.337 C 148.806 167.522,149.160 168.131,149.600 168.691 C 150.040 169.250,150.400 169.524,150.400 169.298 C 150.400 168.800,148.832 166.861,148.813 167.337 M261.276 169.166 C 261.368 169.477,261.884 170.006,262.422 170.341 C 263.180 170.814,263.265 170.821,262.800 170.375 C 262.470 170.059,261.954 169.530,261.654 169.200 C 261.215 168.717,261.141 168.710,261.276 169.166 M264.522 171.813 C 265.140 172.356,265.828 172.800,266.053 172.800 C 266.278 172.800,265.927 172.350,265.273 171.800 C 263.733 170.504,263.048 170.516,264.522 171.813 M308.170 171.190 C 307.956 171.404,307.065 171.841,306.190 172.161 C 305.316 172.482,304.921 172.756,305.313 172.772 C 306.235 172.808,308.623 171.810,308.975 171.241 C 309.312 170.696,308.703 170.657,308.170 171.190 M151.599 172.300 C 152.122 173.015,152.613 173.600,152.689 173.600 C 152.993 173.600,152.001 172.100,151.345 171.567 C 150.913 171.216,151.010 171.496,151.599 172.300 M267.200 173.155 C 267.200 173.595,268.359 174.574,268.598 174.336 C 268.696 174.238,268.421 173.854,267.988 173.483 C 267.555 173.111,267.200 172.964,267.200 173.155 M302.000 173.895 L 300.200 174.883 301.599 174.632 C 302.368 174.494,303.353 174.025,303.788 173.590 C 304.810 172.568,304.242 172.665,302.000 173.895 M125.605 173.800 C 125.605 174.020,125.963 174.740,126.400 175.400 C 126.837 176.060,127.195 176.420,127.195 176.200 C 127.195 175.980,126.837 175.260,126.400 174.600 C 125.963 173.940,125.605 173.580,125.605 173.800 M153.200 174.854 C 153.530 175.154,154.059 175.670,154.375 176.000 C 154.821 176.465,154.814 176.380,154.341 175.622 C 154.006 175.084,153.477 174.568,153.166 174.476 C 152.710 174.341,152.717 174.415,153.200 174.854 M271.413 175.590 C 271.847 176.025,272.832 176.474,273.601 176.589 L 275.000 176.797 273.750 176.400 C 273.063 176.182,272.276 175.732,272.001 175.402 C 271.727 175.071,271.304 174.800,271.062 174.800 C 270.820 174.800,270.978 175.156,271.413 175.590 M298.386 175.371 C 298.064 175.685,297.170 176.118,296.400 176.335 C 295.369 176.624,295.241 176.737,295.913 176.764 C 296.999 176.807,299.390 175.864,299.775 175.241 C 300.172 174.598,299.073 174.701,298.386 175.371 M277.600 177.695 C 280.249 179.015,290.071 179.037,292.800 177.730 C 294.875 176.736,293.917 176.483,291.687 177.436 C 289.426 178.402,282.734 178.615,280.000 177.807 C 276.408 176.745,275.619 176.708,277.600 177.695 M127.609 178.246 C 127.621 178.713,129.180 180.700,129.191 180.263 C 129.196 180.078,128.840 179.469,128.400 178.909 C 127.960 178.350,127.604 178.051,127.609 178.246 M129.615 181.800 C 129.617 182.020,129.986 182.650,130.436 183.200 C 130.979 183.864,131.115 183.931,130.840 183.400 C 130.166 182.095,129.612 181.372,129.615 181.800 M167.233 184.146 C 168.040 184.851,169.352 185.273,168.851 184.665 C 168.549 184.299,168.024 184.000,167.684 184.000 C 167.345 184.000,167.142 184.066,167.233 184.146 M131.800 185.600 C 132.141 186.260,132.511 186.800,132.621 186.800 C 132.731 186.800,132.541 186.260,132.200 185.600 C 131.859 184.940,131.489 184.400,131.379 184.400 C 131.269 184.400,131.459 184.940,131.800 185.600 M178.000 188.600 C 178.770 188.897,179.670 189.139,180.000 189.139 C 180.330 189.139,179.970 188.897,179.200 188.600 C 178.430 188.303,177.530 188.061,177.200 188.061 C 176.870 188.061,177.230 188.303,178.000 188.600 M184.800 190.400 C 185.350 190.576,186.160 190.720,186.600 190.720 C 187.233 190.720,187.192 190.654,186.400 190.400 C 185.850 190.224,185.040 190.080,184.600 190.080 C 183.967 190.080,184.008 190.146,184.800 190.400 M137.583 192.900 C 138.564 193.945,139.419 194.800,139.483 194.800 C 139.784 194.800,139.466 194.441,137.700 192.783 L 135.800 191.000 137.583 192.900 M193.400 192.346 C 193.840 192.539,194.830 192.810,195.600 192.950 C 196.561 193.124,196.749 193.094,196.200 192.854 C 195.760 192.661,194.770 192.390,194.000 192.250 C 193.039 192.076,192.851 192.106,193.400 192.346 M202.400 194.600 C 203.170 194.897,204.070 195.139,204.400 195.139 C 204.730 195.139,204.370 194.897,203.600 194.600 C 202.830 194.303,201.930 194.061,201.600 194.061 C 201.270 194.061,201.630 194.303,202.400 194.600 M210.344 196.409 C 211.303 196.844,212.203 197.192,212.344 197.183 C 212.849 197.150,209.787 195.633,209.200 195.626 C 208.870 195.621,209.385 195.974,210.344 196.409 M224.310 200.401 C 226.008 201.437,226.564 201.436,225.000 200.400 C 224.340 199.963,223.620 199.605,223.400 199.604 C 223.180 199.604,223.589 199.962,224.310 200.401 M164.800 207.400 C 165.350 207.714,165.980 207.972,166.200 207.972 C 166.420 207.972,166.150 207.714,165.600 207.400 C 165.050 207.086,164.420 206.828,164.200 206.828 C 163.980 206.828,164.250 207.086,164.800 207.400 M170.800 209.133 C 171.130 209.336,171.850 209.624,172.400 209.771 C 173.095 209.957,173.217 209.925,172.800 209.667 C 172.470 209.464,171.750 209.176,171.200 209.029 C 170.505 208.843,170.383 208.875,170.800 209.133 M178.000 211.400 C 178.550 211.714,179.270 211.971,179.600 211.970 C 179.930 211.969,179.594 211.706,178.854 211.384 C 177.151 210.645,176.694 210.653,178.000 211.400 M250.783 215.700 C 251.764 216.745,252.619 217.600,252.683 217.600 C 252.984 217.600,252.666 217.241,250.900 215.583 L 249.000 213.800 250.783 215.700 M194.400 215.400 C 194.950 215.714,195.670 215.971,196.000 215.970 C 196.330 215.969,195.994 215.706,195.254 215.384 C 193.551 214.645,193.094 214.653,194.400 215.400 M266.493 247.200 C 266.493 247.970,266.575 248.285,266.676 247.900 C 266.776 247.515,266.776 246.885,266.676 246.500 C 266.575 246.115,266.493 246.430,266.493 247.200 M243.328 257.200 C 243.328 258.630,243.401 259.215,243.489 258.500 C 243.578 257.785,243.578 256.615,243.489 255.900 C 243.401 255.185,243.328 255.770,243.328 257.200 M267.679 257.450 C 267.636 259.018,267.511 260.907,267.401 261.650 L 267.203 263.000 267.618 261.678 C 267.847 260.951,267.972 259.061,267.897 257.478 L 267.759 254.600 267.679 257.450 M50.000 274.646 C 49.010 275.419,47.930 276.338,47.600 276.688 C 47.270 277.038,48.125 276.476,49.500 275.439 C 50.875 274.402,52.000 273.474,52.000 273.377 C 52.000 273.099,51.906 273.159,50.000 274.646 M44.547 278.947 C 42.265 281.230,42.302 283.678,44.664 286.531 C 45.179 287.153,45.600 287.873,45.600 288.131 C 45.601 288.389,46.051 289.123,46.600 289.762 C 47.150 290.401,47.600 291.156,47.600 291.440 C 47.600 291.723,47.915 292.190,48.300 292.477 C 48.685 292.765,49.343 293.675,49.763 294.500 C 50.183 295.325,50.656 296.000,50.814 296.000 C 50.973 296.000,51.331 296.549,51.609 297.221 C 52.334 298.972,54.672 300.117,56.010 299.376 L 57.000 298.828 55.919 298.814 C 53.795 298.786,52.944 297.915,48.412 291.131 C 42.671 282.535,42.385 281.485,45.078 278.905 C 46.056 277.967,46.731 277.200,46.576 277.200 C 46.421 277.200,45.508 277.986,44.547 278.947 M224.600 317.600 C 223.940 318.037,223.580 318.392,223.800 318.388 C 224.201 318.382,226.376 316.823,226.000 316.812 C 225.890 316.808,225.260 317.163,224.600 317.600 M202.505 321.087 C 203.114 321.179,204.014 321.177,204.505 321.082 C 204.997 320.987,204.500 320.911,203.400 320.914 C 202.300 320.917,201.897 320.995,202.505 321.087 " stroke="none" fill="#57748e" fill-rule="evenodd"></path><path id="path4" d="M185.239 43.353 C 184.539 44.196,179.410 44.800,172.948 44.800 C 167.395 44.800,167.095 44.841,166.400 45.700 C 165.735 46.523,165.276 46.612,161.060 46.734 C 156.683 46.861,156.440 46.912,156.323 47.734 C 156.208 48.541,155.948 48.608,152.500 48.715 C 148.866 48.828,148.800 48.848,148.800 49.815 C 148.800 50.774,148.721 50.800,145.800 50.800 C 143.067 50.800,142.800 50.871,142.800 51.600 C 142.800 52.591,145.013 52.729,146.224 51.813 C 147.451 50.885,244.379 50.906,245.796 51.834 C 246.831 52.512,247.600 52.317,247.600 51.376 C 247.600 50.929,246.971 50.800,244.800 50.800 C 242.080 50.800,242.000 50.771,242.000 49.800 C 242.000 48.822,241.934 48.800,238.990 48.800 C 236.148 48.800,235.959 48.744,235.600 47.800 C 235.231 46.829,235.107 46.800,231.392 46.800 C 227.898 46.800,227.481 46.717,226.616 45.852 C 225.710 44.946,225.370 44.896,218.918 44.728 C 213.009 44.575,211.943 44.444,210.358 43.676 C 208.077 42.572,186.122 42.290,185.239 43.353 M182.600 80.396 C 177.980 80.870,174.932 81.435,172.200 82.325 C 170.880 82.755,169.086 83.213,168.213 83.342 C 167.340 83.472,166.133 83.943,165.529 84.389 C 164.926 84.835,163.899 85.200,163.247 85.200 C 162.566 85.200,161.556 85.626,160.873 86.200 C 160.219 86.750,159.319 87.200,158.873 87.200 C 158.427 87.200,157.527 87.650,156.873 88.200 C 156.219 88.750,155.409 89.200,155.073 89.200 C 154.737 89.200,153.953 89.612,153.331 90.116 C 152.709 90.619,151.712 91.242,151.116 91.500 C 150.519 91.758,149.709 92.249,149.316 92.592 C 148.922 92.935,146.980 94.528,145.000 96.134 C 141.251 99.173,135.200 105.435,135.200 106.275 C 135.200 106.542,134.946 106.904,134.635 107.080 C 134.000 107.440,131.200 111.392,131.200 111.928 C 131.200 112.120,130.850 112.593,130.423 112.979 C 129.995 113.366,129.535 114.186,129.400 114.800 C 129.265 115.414,128.815 116.224,128.400 116.600 C 127.985 116.976,127.522 117.849,127.371 118.541 C 127.219 119.234,126.772 120.213,126.376 120.719 C 125.979 121.224,125.533 122.194,125.384 122.874 C 125.234 123.554,124.684 125.030,124.160 126.155 C 123.539 127.489,123.206 128.934,123.204 130.311 C 123.202 131.471,122.797 133.901,122.304 135.711 C 120.975 140.594,120.949 157.138,122.264 161.400 C 122.739 162.940,123.255 165.010,123.410 166.000 C 123.565 166.990,124.019 168.483,124.418 169.317 C 124.817 170.152,125.269 171.412,125.422 172.117 C 125.575 172.823,126.037 174.030,126.449 174.800 C 126.861 175.570,127.466 176.830,127.794 177.600 C 128.598 179.491,130.975 183.750,132.420 185.892 C 133.069 186.853,133.600 187.809,133.600 188.016 C 133.600 189.143,144.224 198.800,145.464 198.800 C 145.759 198.800,146.000 198.952,146.000 199.137 C 146.000 199.322,146.667 199.817,147.483 200.237 C 148.298 200.657,149.583 201.405,150.338 201.900 C 151.094 202.395,152.054 202.800,152.473 202.800 C 152.891 202.800,153.617 203.158,154.087 203.595 C 154.556 204.032,155.584 204.488,156.370 204.608 C 157.157 204.728,158.498 205.199,159.351 205.655 C 160.204 206.110,161.824 206.630,162.951 206.811 C 164.078 206.991,166.080 207.500,167.400 207.942 C 168.720 208.385,171.420 209.228,173.400 209.817 C 175.380 210.406,177.810 211.139,178.800 211.446 C 180.671 212.026,183.285 212.649,190.400 214.211 C 192.710 214.718,195.140 215.314,195.800 215.535 C 196.460 215.756,198.260 216.156,199.800 216.423 C 201.340 216.690,203.050 217.129,203.600 217.400 C 204.150 217.671,205.860 218.124,207.400 218.407 C 208.940 218.690,210.560 219.153,211.000 219.435 C 211.440 219.717,212.700 220.165,213.800 220.430 C 214.900 220.696,216.070 221.141,216.400 221.419 C 216.730 221.698,217.804 222.140,218.786 222.401 C 219.768 222.663,220.992 223.207,221.505 223.611 C 222.018 224.014,222.950 224.457,223.577 224.595 C 224.204 224.733,225.034 225.195,225.421 225.623 C 225.807 226.050,226.341 226.400,226.607 226.400 C 226.873 226.400,227.769 226.940,228.600 227.600 C 229.431 228.260,230.343 228.800,230.628 228.800 C 230.913 228.800,231.257 229.151,231.394 229.580 C 231.530 230.008,231.992 230.470,232.420 230.606 C 232.849 230.743,233.200 231.016,233.200 231.213 C 233.200 231.411,233.695 232.092,234.300 232.727 C 234.905 233.363,235.627 234.224,235.905 234.641 C 238.285 238.219,239.178 239.707,239.415 240.488 C 239.567 240.990,240.012 241.940,240.405 242.600 C 240.798 243.260,241.338 244.880,241.605 246.200 C 241.873 247.520,242.373 249.140,242.717 249.800 C 243.724 251.734,243.574 263.117,242.506 265.800 C 242.068 266.900,241.579 268.520,241.420 269.400 C 241.156 270.856,239.453 274.687,237.668 277.839 C 235.679 281.350,229.456 287.967,226.500 289.712 C 225.785 290.134,225.199 290.596,225.199 290.740 C 225.198 290.883,224.388 291.333,223.399 291.740 C 222.409 292.146,221.600 292.620,221.600 292.792 C 221.600 292.964,220.773 293.313,219.763 293.568 C 218.752 293.822,217.515 294.299,217.013 294.628 C 216.074 295.244,208.876 296.653,204.566 297.066 C 203.040 297.212,200.949 297.065,198.966 296.673 C 197.224 296.329,194.900 295.922,193.800 295.767 C 191.979 295.512,186.665 293.688,185.200 292.816 C 180.616 290.086,178.914 288.952,178.477 288.337 C 178.190 287.932,177.794 287.600,177.597 287.600 C 177.243 287.600,175.541 285.883,173.600 283.569 C 173.050 282.913,172.240 281.980,171.800 281.496 C 171.360 281.011,170.820 280.327,170.600 279.975 C 169.541 278.281,167.411 275.600,167.123 275.600 C 166.945 275.600,166.800 275.399,166.800 275.153 C 166.800 274.907,166.305 274.103,165.700 273.368 C 165.095 272.632,163.700 270.835,162.600 269.375 C 161.500 267.915,160.209 266.294,159.731 265.773 C 159.253 265.252,158.746 264.460,158.604 264.012 C 158.462 263.565,157.998 263.013,157.573 262.786 C 157.148 262.558,156.800 262.148,156.800 261.875 C 156.800 261.421,155.793 260.093,153.624 257.686 C 153.171 257.183,152.800 256.597,152.800 256.383 C 152.800 256.170,152.350 255.603,151.800 255.125 C 151.250 254.647,150.800 254.061,150.800 253.822 C 150.800 253.583,150.345 252.851,149.790 252.194 C 149.234 251.537,147.577 249.470,146.107 247.600 C 142.323 242.786,135.707 237.200,133.790 237.200 C 133.519 237.200,133.087 236.946,132.829 236.635 C 132.571 236.324,131.424 235.847,130.280 235.574 C 129.136 235.302,127.799 234.818,127.310 234.500 C 125.187 233.119,110.069 233.088,107.944 234.460 C 107.425 234.795,106.116 235.288,105.035 235.556 C 103.954 235.825,102.625 236.394,102.081 236.822 C 101.537 237.250,100.891 237.603,100.646 237.607 C 100.221 237.614,97.505 239.279,95.800 240.578 C 94.110 241.865,91.973 243.447,90.366 244.600 C 89.446 245.260,87.644 246.610,86.362 247.600 C 85.080 248.590,83.175 250.030,82.129 250.800 C 79.944 252.407,79.304 252.920,77.827 254.245 C 77.242 254.770,76.681 255.200,76.580 255.200 C 76.326 255.200,70.803 259.329,69.700 260.344 C 69.204 260.800,68.394 261.385,67.900 261.646 C 67.405 261.906,66.460 262.541,65.800 263.056 C 64.186 264.316,63.797 264.612,57.800 269.133 C 40.252 282.362,41.150 280.258,48.412 291.131 C 53.941 299.408,55.443 300.347,58.747 297.586 C 60.726 295.933,60.812 295.868,62.721 294.605 C 63.645 293.994,64.400 293.338,64.400 293.147 C 64.400 292.956,64.657 292.800,64.971 292.800 C 65.285 292.800,65.896 292.350,66.329 291.800 C 66.761 291.250,67.335 290.800,67.605 290.800 C 67.874 290.800,68.687 290.305,69.412 289.700 C 70.136 289.095,71.397 288.150,72.214 287.600 C 73.031 287.050,74.103 286.195,74.596 285.700 C 75.089 285.205,75.664 284.800,75.874 284.800 C 76.084 284.800,76.861 284.260,77.600 283.600 C 78.339 282.940,79.180 282.400,79.469 282.400 C 79.757 282.400,80.218 282.040,80.493 281.600 C 80.768 281.160,81.188 280.800,81.426 280.800 C 81.665 280.800,82.283 280.350,82.800 279.800 C 83.317 279.250,83.908 278.800,84.115 278.800 C 84.489 278.800,86.344 277.405,88.237 275.700 C 88.787 275.205,89.395 274.800,89.590 274.800 C 89.784 274.800,90.181 274.569,90.471 274.287 C 90.762 274.005,91.630 273.342,92.400 272.815 C 93.972 271.738,94.514 271.302,96.118 269.828 C 96.733 269.263,97.409 268.800,97.621 268.800 C 97.832 268.800,98.397 268.350,98.875 267.800 C 99.353 267.250,99.912 266.800,100.117 266.800 C 100.490 266.800,102.348 265.402,104.237 263.700 C 104.787 263.205,105.409 262.800,105.621 262.800 C 105.832 262.800,106.397 262.350,106.875 261.800 C 107.353 261.250,107.950 260.800,108.202 260.800 C 108.454 260.800,109.083 260.350,109.600 259.800 C 110.117 259.250,110.736 258.800,110.977 258.800 C 111.217 258.800,112.077 258.350,112.886 257.800 C 115.012 256.355,119.309 256.355,121.438 257.800 C 122.249 258.350,123.120 258.800,123.375 258.800 C 123.982 258.800,126.325 261.244,128.360 264.000 C 129.253 265.210,130.268 266.560,130.615 267.000 C 131.181 267.719,134.730 272.478,136.482 274.869 C 136.857 275.381,138.207 277.179,139.482 278.864 C 140.757 280.550,142.070 282.333,142.400 282.827 C 142.730 283.322,143.459 284.283,144.021 284.963 C 144.582 285.643,145.752 287.188,146.621 288.396 C 147.489 289.603,148.470 290.889,148.800 291.252 C 149.130 291.615,150.480 293.408,151.800 295.235 C 153.120 297.063,156.090 300.433,158.400 302.725 C 163.682 307.966,164.153 308.400,164.561 308.400 C 164.744 308.400,165.509 308.940,166.261 309.600 C 167.013 310.260,167.852 310.800,168.125 310.800 C 168.398 310.800,168.930 311.160,169.307 311.600 C 169.684 312.040,170.229 312.400,170.518 312.400 C 170.808 312.400,171.642 312.841,172.372 313.379 C 173.101 313.918,174.261 314.477,174.949 314.622 C 175.637 314.768,176.579 315.234,177.043 315.659 C 177.506 316.084,178.586 316.544,179.443 316.682 C 180.299 316.819,181.454 317.266,182.009 317.674 C 182.564 318.082,184.004 318.522,185.209 318.651 C 186.414 318.780,188.210 319.271,189.200 319.743 C 191.988 321.071,214.330 321.063,217.400 319.734 C 218.500 319.257,220.278 318.763,221.352 318.634 C 222.425 318.506,223.865 318.063,224.552 317.649 C 225.238 317.236,226.457 316.781,227.259 316.638 C 228.062 316.496,229.170 316.024,229.723 315.589 C 230.275 315.155,230.917 314.800,231.150 314.800 C 231.804 314.800,234.400 313.488,234.400 313.158 C 234.400 312.996,234.928 312.748,235.572 312.606 C 236.217 312.464,236.970 312.077,237.246 311.745 C 237.521 311.413,238.434 310.791,239.273 310.363 C 240.113 309.934,240.800 309.407,240.800 309.192 C 240.800 308.976,240.993 308.800,241.228 308.800 C 242.226 308.800,250.524 301.062,253.275 297.566 C 255.788 294.372,256.281 293.713,257.397 292.055 C 259.304 289.221,262.800 282.483,262.800 281.641 C 262.800 281.383,263.058 280.773,263.374 280.286 C 263.689 279.799,264.217 278.320,264.545 277.000 C 264.874 275.680,265.408 273.790,265.732 272.800 C 267.971 265.958,267.772 249.108,265.364 241.593 C 264.834 239.939,264.400 238.278,264.400 237.902 C 264.400 237.238,263.624 235.399,261.064 230.000 C 257.034 221.498,248.243 212.019,240.473 207.800 C 239.663 207.360,238.904 206.872,238.786 206.716 C 238.668 206.559,237.858 206.136,236.986 205.776 C 236.114 205.415,235.130 204.891,234.800 204.611 C 234.470 204.330,233.480 203.877,232.600 203.602 C 231.720 203.328,230.460 202.787,229.800 202.400 C 229.140 202.014,227.920 201.576,227.088 201.428 C 226.257 201.280,224.997 200.826,224.288 200.418 C 223.580 200.010,222.190 199.547,221.200 199.390 C 220.210 199.233,218.768 198.784,217.996 198.393 C 217.224 198.002,215.525 197.548,214.221 197.385 C 212.918 197.223,211.120 196.766,210.226 196.371 C 209.332 195.976,207.610 195.535,206.400 195.392 C 205.190 195.249,203.120 194.796,201.800 194.385 C 200.480 193.975,198.680 193.522,197.800 193.380 C 196.920 193.238,194.580 192.708,192.600 192.203 C 190.620 191.698,186.840 190.787,184.200 190.178 C 178.817 188.936,175.768 187.940,170.800 185.803 C 168.930 184.998,166.716 184.088,165.880 183.780 C 165.043 183.473,163.873 182.969,163.280 182.661 C 162.686 182.353,161.516 181.807,160.680 181.448 C 158.912 180.687,158.493 180.374,156.259 178.141 C 154.322 176.204,152.800 174.428,152.800 174.104 C 152.800 173.978,152.366 173.307,151.837 172.612 C 151.307 171.918,150.590 170.731,150.245 169.975 C 149.899 169.219,149.438 168.330,149.221 168.000 C 141.785 156.695,143.237 133.119,151.900 124.496 C 152.395 124.003,152.800 123.426,152.800 123.214 C 152.800 122.407,159.171 115.881,161.224 114.585 C 162.091 114.038,162.800 113.412,162.800 113.195 C 162.800 112.978,163.056 112.800,163.369 112.800 C 163.682 112.800,164.460 112.362,165.096 111.826 C 165.733 111.290,166.723 110.734,167.297 110.590 C 167.871 110.446,168.652 109.984,169.033 109.564 C 169.413 109.144,170.011 108.799,170.362 108.798 C 171.491 108.794,173.957 107.986,174.501 107.442 C 176.626 105.317,199.143 105.479,201.928 107.639 C 202.439 108.035,203.699 108.482,204.728 108.631 C 205.758 108.780,206.929 109.247,207.331 109.667 C 207.732 110.088,208.575 110.535,209.203 110.661 C 209.830 110.786,210.748 111.319,211.242 111.844 C 211.735 112.370,212.372 112.800,212.656 112.800 C 212.940 112.800,213.583 113.169,214.086 113.621 C 216.699 115.967,221.547 120.811,222.600 122.128 C 223.260 122.954,224.499 124.298,225.352 125.115 C 226.657 126.363,231.664 132.566,234.600 136.571 C 235.040 137.172,236.535 139.134,237.923 140.931 C 239.310 142.729,240.750 144.657,241.123 145.216 C 241.700 146.082,245.942 151.787,246.911 153.000 C 247.086 153.220,248.438 155.019,249.915 156.999 C 253.602 161.940,262.533 170.800,263.827 170.800 C 264.074 170.800,264.598 171.155,264.991 171.590 C 265.384 172.024,266.073 172.496,266.522 172.639 C 266.971 172.781,267.692 173.227,268.123 173.629 C 268.555 174.031,269.462 174.482,270.138 174.630 C 270.815 174.779,271.826 175.232,272.384 175.638 C 272.943 176.044,274.390 176.551,275.600 176.765 C 276.810 176.979,278.790 177.447,280.000 177.806 C 282.453 178.532,289.630 178.440,291.081 177.664 C 291.521 177.428,293.194 176.962,294.799 176.627 C 296.403 176.293,298.019 175.745,298.390 175.409 C 298.760 175.074,299.333 174.800,299.664 174.800 C 299.994 174.800,301.150 174.350,302.232 173.801 C 303.314 173.251,304.830 172.601,305.600 172.356 C 306.370 172.111,307.374 171.677,307.831 171.391 C 311.395 169.163,314.466 169.486,316.627 172.316 C 320.996 178.039,323.090 177.292,334.384 165.983 C 334.943 165.424,336.660 163.954,338.200 162.717 C 346.737 155.859,350.589 150.648,349.619 147.268 C 349.085 145.405,345.633 137.690,344.560 135.962 C 342.666 132.909,338.146 132.247,326.800 133.363 C 305.331 135.473,307.139 135.201,305.662 136.546 C 303.488 138.526,303.070 140.993,304.409 143.944 C 305.809 147.030,304.925 148.852,301.394 150.159 C 298.387 151.272,293.848 153.228,293.389 153.609 C 293.136 153.819,291.550 154.205,289.865 154.467 C 281.954 155.697,275.242 152.535,269.322 144.791 C 262.633 136.040,260.637 133.258,259.611 131.250 C 258.449 128.979,258.141 128.546,254.700 124.351 C 253.655 123.077,252.800 121.917,252.800 121.772 C 252.800 121.495,251.213 119.443,249.700 117.763 C 249.205 117.213,248.800 116.623,248.800 116.452 C 248.800 116.280,248.350 115.717,247.800 115.200 C 247.250 114.683,246.800 114.092,246.800 113.885 C 246.800 113.511,245.405 111.656,243.700 109.763 C 243.205 109.213,242.800 108.591,242.800 108.379 C 242.800 108.168,242.350 107.603,241.800 107.125 C 241.250 106.647,240.800 106.044,240.800 105.785 C 240.800 104.471,228.719 93.200,227.311 93.200 C 227.030 93.200,226.800 92.932,226.800 92.605 C 226.800 92.278,226.215 91.726,225.500 91.379 C 223.904 90.603,221.464 89.237,219.600 88.075 C 218.830 87.596,217.873 87.202,217.473 87.201 C 217.074 87.201,216.157 86.750,215.436 86.200 C 214.714 85.650,213.746 85.200,213.283 85.200 C 212.821 85.200,211.596 84.750,210.562 84.200 C 209.527 83.650,208.329 83.200,207.899 83.200 C 207.469 83.200,205.651 82.769,203.859 82.241 C 197.879 80.482,189.156 79.725,182.600 80.396 M195.200 82.776 C 196.190 82.957,198.725 83.396,200.833 83.752 C 204.584 84.386,211.012 86.238,213.400 87.373 C 222.072 91.495,222.868 91.951,227.800 95.634 C 231.092 98.092,236.915 103.644,239.302 106.600 C 241.277 109.045,256.272 129.090,258.005 131.600 C 260.221 134.812,265.217 141.421,266.800 143.236 C 267.130 143.615,268.024 144.796,268.786 145.862 C 275.615 155.413,288.300 158.985,296.062 153.544 C 296.646 153.135,297.456 152.798,297.862 152.795 C 298.268 152.793,299.383 152.343,300.341 151.795 C 301.298 151.248,302.347 150.800,302.672 150.800 C 305.337 150.800,307.015 146.394,305.566 143.200 C 304.515 140.884,304.823 139.362,306.649 137.844 C 308.141 136.602,307.366 136.732,319.800 135.638 C 322.220 135.425,327.388 134.939,331.285 134.558 C 342.432 133.469,342.588 133.542,345.970 141.400 C 346.916 143.600,347.940 145.799,348.245 146.286 C 349.670 148.561,348.600 151.079,344.474 155.162 C 339.675 159.912,324.959 173.487,324.126 173.932 C 322.453 174.828,318.400 174.020,318.400 172.791 C 318.400 172.077,315.607 169.300,314.375 168.790 C 312.717 168.103,310.086 168.937,301.800 172.776 C 281.637 182.118,265.266 175.745,247.400 151.601 C 246.740 150.709,245.882 149.579,245.494 149.090 C 244.735 148.133,240.403 142.400,239.282 140.869 C 238.907 140.356,237.468 138.466,236.084 136.669 C 234.700 134.871,233.267 132.950,232.898 132.400 C 232.251 131.433,229.609 128.007,229.198 127.600 C 228.557 126.967,224.799 122.356,223.818 121.000 C 204.461 94.232,160.359 99.751,146.327 130.697 C 137.599 149.946,146.016 176.521,163.263 184.166 C 166.198 185.467,169.590 186.974,170.800 187.514 C 174.478 189.156,177.659 190.281,180.600 190.981 C 192.634 193.844,199.893 195.526,204.800 196.587 C 213.749 198.523,227.234 202.481,228.563 203.562 C 228.803 203.758,229.810 204.147,230.800 204.428 C 231.790 204.708,232.870 205.156,233.200 205.422 C 233.530 205.689,234.831 206.389,236.091 206.978 C 237.352 207.568,239.282 208.669,240.382 209.425 C 241.481 210.181,242.550 210.800,242.757 210.800 C 242.964 210.800,243.193 210.935,243.267 211.100 C 243.340 211.265,244.300 212.108,245.400 212.974 C 261.806 225.882,270.083 251.937,264.213 272.195 C 263.656 274.117,263.200 275.918,263.200 276.196 C 263.200 276.674,262.611 278.113,260.084 283.800 C 253.824 297.889,239.260 311.093,224.323 316.223 C 208.149 321.777,187.376 320.404,174.800 312.949 C 174.250 312.623,173.208 312.091,172.485 311.767 C 169.571 310.459,162.826 305.230,158.795 301.153 C 155.969 298.295,154.878 296.889,140.267 277.277 C 138.250 274.570,135.468 270.880,134.084 269.077 C 132.700 267.275,131.262 265.350,130.888 264.800 C 125.843 257.381,123.439 255.800,117.200 255.800 C 112.538 255.800,111.825 256.072,106.903 259.733 C 105.671 260.650,97.316 266.890,88.338 273.600 C 51.169 301.379,54.875 299.089,52.602 295.692 C 52.052 294.872,51.197 293.640,50.701 292.956 C 49.653 291.510,48.673 290.038,47.267 287.800 C 46.714 286.920,45.843 285.560,45.331 284.778 C 43.983 282.720,44.085 280.983,45.600 280.200 C 46.260 279.859,46.800 279.404,46.800 279.190 C 46.800 278.975,47.000 278.800,47.245 278.800 C 47.490 278.800,49.065 277.726,50.745 276.412 C 54.859 273.197,54.942 273.134,58.600 270.420 C 60.360 269.114,62.160 267.764,62.600 267.420 C 63.040 267.076,64.840 265.726,66.600 264.420 C 68.360 263.114,70.160 261.764,70.600 261.420 C 71.040 261.076,72.840 259.731,74.600 258.431 C 76.360 257.132,78.115 255.784,78.500 255.435 C 78.885 255.086,79.305 254.800,79.433 254.800 C 79.561 254.800,81.046 253.749,82.733 252.463 C 86.665 249.468,97.798 241.223,99.522 240.029 C 105.656 235.783,119.012 233.292,124.584 235.354 C 125.473 235.682,127.010 236.156,128.000 236.407 C 132.068 237.437,137.797 240.944,141.400 244.609 C 143.674 246.923,152.555 258.270,158.718 266.737 C 165.390 275.903,172.669 285.232,174.161 286.530 C 174.622 286.931,175.630 287.845,176.400 288.561 C 179.682 291.611,187.628 295.993,191.339 296.800 C 192.253 296.998,193.990 297.461,195.200 297.828 C 200.748 299.510,215.116 298.087,219.316 295.440 C 219.802 295.134,220.620 294.758,221.134 294.604 C 224.989 293.451,232.882 287.005,237.207 281.478 C 243.444 273.506,246.992 253.818,243.443 246.869 C 243.142 246.281,242.769 245.170,242.612 244.400 C 242.337 243.042,239.698 237.203,239.178 236.800 C 239.036 236.690,238.687 236.150,238.403 235.600 C 233.778 226.645,219.771 219.386,196.715 213.995 C 181.597 210.461,179.340 209.911,177.800 209.386 C 176.920 209.086,174.760 208.454,173.000 207.980 C 171.240 207.506,168.540 206.779,167.000 206.363 C 162.354 205.109,157.506 203.552,155.600 202.702 C 144.289 197.659,138.425 192.794,132.574 183.600 C 131.384 181.730,130.408 179.999,130.405 179.754 C 130.402 179.509,130.066 178.879,129.658 178.354 C 129.250 177.829,128.687 176.680,128.406 175.800 C 128.125 174.920,127.733 173.994,127.533 173.741 C 126.716 172.707,124.966 167.038,123.354 160.200 C 122.309 155.767,122.255 140.172,123.273 136.800 C 123.638 135.590,124.055 133.700,124.199 132.600 C 125.153 125.302,131.739 112.275,137.871 105.557 C 144.548 98.242,150.791 93.342,157.985 89.773 C 164.521 86.530,169.749 84.737,175.540 83.753 C 177.663 83.392,180.120 82.962,181.000 82.798 C 183.196 82.389,192.994 82.374,195.200 82.776 " stroke="none" fill="#6a87a0" fill-rule="evenodd"></path></g></svg>